<svg width="48" height="48" viewBox="0 0 48 48" fill="none" xmlns="http://www.w3.org/2000/svg">
<path d="M7.5 3C7.5 1.34315 8.84315 0 10.5 0C12.1569 0 13.5 1.34315 13.5 3V5H7.5V3Z" fill="#C2C2C2"/>
<path d="M34.5 3C34.5 1.34315 35.8431 0 37.5 0C39.1569 0 40.5 1.34315 40.5 3V5H34.5V3Z" fill="#C2C2C2"/>
<rect x="1.5" y="6.5" width="45" height="40" rx="3.5" fill="#C2C2C2"/>
<rect x="1.5" y="6.5" width="45" height="40" rx="3.5" stroke="#C2C2C2" stroke-width="3"/>
<path d="M0 10C0 7.23858 2.23858 5 5 5H43C45.7614 5 48 7.23858 48 10V13H0V10Z" fill="#C2C2C2"/>
<rect y="16" width="48" height="32" rx="5" fill="#C2C2C2"/>
<rect x="19" y="16" width="10" height="6.66667" rx="2" fill="white"/>
<rect x="32" y="16" width="10" height="6.66667" rx="2" fill="white"/>
<rect x="6" y="25.666" width="10" height="6.66667" rx="2" fill="white"/>
<rect x="19" y="25.666" width="10" height="6.66667" rx="2" fill="white"/>
<rect x="32" y="25.666" width="10" height="6.66667" rx="2" fill="white"/>
<rect x="6" y="35.334" width="10" height="6.66667" rx="2" fill="white"/>
<rect x="19" y="35.334" width="10" height="6.66667" rx="2" fill="white"/>
<rect x="32" y="35.334" width="10" height="6.66667" rx="2" fill="white"/>
</svg>
