<svg width="2160" height="2160" viewBox="0 0 2160 2160" fill="none" xmlns="http://www.w3.org/2000/svg">
    <path fill-rule="evenodd" clip-rule="evenodd" d="M1027.92 157.077C1001.1 159.198 966.519 163.506 948.966 166.914C431.401 267.422 177.53 839.141 452.265 1285.49C504.008 1369.55 549.19 1416.73 689.27 1532.99C933.814 1735.94 1009.93 1829.8 1025.4 1947.53C1027.16 1960.9 1031.57 1975.24 1033.55 1974.01C1034.17 1973.63 1034.38 1974.09 1034.02 1975.03C1032.3 1979.53 1047.58 1994.84 1059.38 2000.45C1068.92 2004.99 1091.2 2005.22 1100.6 2000.88C1113.14 1995.1 1129.19 1978.84 1126.56 1974.59C1125.98 1973.65 1126.13 1973.38 1126.95 1973.89C1129.15 1975.25 1133.46 1961.55 1135.34 1947.25C1147.13 1857.64 1203.7 1771.83 1325.86 1658.27C1364.36 1622.49 1380.42 1608.69 1484.4 1522.07C1517.64 1494.37 1544.69 1471 1544.51 1470.13C1544.32 1469.26 1544.75 1468.92 1545.47 1469.36C1547.15 1470.4 1570.17 1450.08 1596.49 1424.31C1874.3 1152.44 1895.76 717.861 1646.16 418.6C1626.62 395.171 1578.49 346.296 1576.3 347.652C1575.28 348.279 1574.99 348.156 1575.51 347.316C1577.6 343.935 1522.78 300.516 1485.63 276.124C1351.58 188.12 1184.61 144.691 1027.92 157.077ZM1117.37 637.792C1353.85 670.956 1422.13 995.55 1217.83 1115.31C1214.82 1117.07 1212.63 1118.96 1212.97 1119.49C1213.3 1120.03 1212.88 1120.39 1212.04 1120.3C1211.2 1120.21 1203.57 1123.57 1195.09 1127.76C1129.08 1160.44 1052.4 1163.5 984.145 1136.18C978.016 1133.73 972.312 1132.12 971.471 1132.6C970.628 1133.09 970.349 1133.03 970.852 1132.48C972.053 1131.15 945.941 1116.88 944.164 1117.9C943.413 1118.32 943.199 1118.23 943.69 1117.69C944.181 1117.14 940.689 1114.02 935.929 1110.74C709.339 954.603 845.506 599.666 1117.37 637.792Z" fill="#FF4334"/>
</svg>
