<svg width="86" height="54" viewBox="0 0 86 54" fill="none" xmlns="http://www.w3.org/2000/svg">
<rect width="86" height="54" fill="black"/>
<path d="M33.3302 43.194H32.7065V40.5343C32.7065 40.5343 32.6998 40.5006 32.6863 40.4703C32.6492 40.3995 32.5515 40.3422 32.393 40.2984C32.2582 40.2613 32.1031 40.2411 31.9379 40.2411V43.194H31.3143V40.2444C31.3143 40.1939 31.2806 40.1332 31.2132 40.0557L31.1121 39.9512H33.3302V43.194Z" fill="#E9A94F"/>
<path d="M35.8011 43.1941H35.2381L35.1033 42.5132C35.0932 42.4727 35.0392 42.4256 34.9448 42.3716C34.8505 42.3177 34.6819 42.2806 34.4358 42.257L34.2572 43.1975H33.6942L34.2774 40.1872C34.2605 40.1535 34.2369 40.1164 34.21 40.0827C34.183 40.049 34.156 40.0187 34.1358 39.9951L34.0987 39.958H35.1808L35.8011 43.2009V43.1941ZM35.019 41.9604L34.7527 40.5176L34.4864 41.9604H35.0224H35.019Z" fill="#E9A94F"/>
<path d="M36.8158 43.194H36.1921V40.2444C36.1921 40.1939 36.1584 40.1332 36.091 40.0557L35.9899 39.9512H37.3922C37.7967 39.9512 38.0091 40.1939 38.0259 40.6759V41.249C38.0259 41.4614 37.972 41.6367 37.8608 41.7715C37.7495 41.9063 37.5944 41.9737 37.3922 41.9737H36.8158V43.1974V43.194ZM37.2 41.6838C37.2574 41.6838 37.3045 41.6636 37.345 41.6265C37.3854 41.5895 37.4057 41.5423 37.4057 41.485V40.4467C37.4057 40.386 37.3854 40.3388 37.345 40.2984C37.3045 40.2613 37.2574 40.2411 37.2 40.2411H36.6236L36.6539 40.2579C36.6708 40.268 36.6944 40.2849 36.718 40.3018C36.745 40.322 36.7686 40.3422 36.7854 40.3658C36.8056 40.3894 36.8158 40.4164 36.8158 40.4433V41.6805H37.2V41.6838Z" fill="#E9A94F"/>
<path d="M40.5103 43.1945H39.8429L39.3743 42.0753C39.3406 41.9573 39.2462 41.8427 39.0911 41.7281V43.1911H38.4675V40.2415C38.4675 40.1909 38.4338 40.1303 38.3664 40.0527L38.2653 39.9482H39.0878V41.2764L39.1417 41.2966L39.7552 39.9482H40.3789L39.7283 41.3809H39.3305L39.5395 41.4955C39.7788 41.6236 39.9271 41.7787 39.9912 41.9506L40.5069 43.1877L40.5103 43.1945Z" fill="#E9A94F"/>
<path d="M42.344 41.3745H40.8237V41.0947H42.344V41.3745Z" fill="#E9A94F"/>
<path d="M43.9621 43.194H43.3958C43.1936 43.194 43.0351 43.1266 42.9273 42.9918C42.816 42.8569 42.7621 42.6817 42.7621 42.4693V40.6759C42.7621 40.4501 42.816 40.2714 42.9273 40.1433C43.0385 40.0152 43.1936 39.9512 43.3958 39.9512H43.9621C44.37 39.9512 44.5824 40.1939 44.5959 40.6759V42.4693C44.5959 42.6817 44.542 42.8569 44.4341 42.9918C44.3262 43.1266 44.1678 43.194 43.9621 43.194ZM43.7666 42.9041C43.8273 42.9041 43.8745 42.8839 43.915 42.8468C43.952 42.8097 43.9723 42.7626 43.9723 42.7053V40.4433C43.9723 40.3827 43.952 40.3355 43.915 40.295C43.8779 40.2546 43.8273 40.2377 43.7666 40.2377H43.1902L43.2205 40.2546C43.2408 40.2647 43.2644 40.2815 43.288 40.2984C43.3116 40.3186 43.3351 40.3388 43.3554 40.3624C43.3756 40.386 43.3857 40.413 43.3857 40.44V42.712C43.3891 42.7659 43.4093 42.8097 43.4498 42.8468C43.4868 42.8839 43.534 42.9008 43.5846 42.9008H43.7633L43.7666 42.9041Z" fill="#E9A94F"/>
<path d="M46.2443 43.194H45.6207V40.2411H45.0072C45.0072 40.1905 44.9735 40.1298 44.9061 40.0523L44.8049 39.9512H46.9388V40.5377C46.8848 40.3388 46.5949 40.2377 46.0623 40.2377C46.0825 40.2444 46.1129 40.2613 46.1533 40.2916C46.1938 40.322 46.2241 40.3523 46.241 40.3928V43.194H46.2443Z" fill="#E9A94F"/>
<path d="M48.968 43.194H47.3163V40.2444C47.3163 40.1939 47.2826 40.1332 47.2151 40.0557L47.114 39.9512H48.9647V40.5377C48.9647 40.5377 48.9546 40.5006 48.9343 40.4669C48.9141 40.4332 48.8737 40.3995 48.813 40.3658C48.7523 40.3321 48.6579 40.3018 48.5332 40.2782C48.4085 40.2546 48.2365 40.2411 48.0242 40.2377L47.741 40.2444L47.8421 40.3018C47.9062 40.3523 47.9365 40.3995 47.9365 40.4501V41.3636H48.6512V41.9502C48.6512 41.8962 48.6141 41.8457 48.5399 41.7985C48.4321 41.7209 48.2399 41.6737 47.9669 41.6501H47.9365V42.9142H48.9647V43.1974L48.968 43.194Z" fill="#E9A94F"/>
<path d="M51.5333 43.1946H50.9366L50.4445 40.5349L49.9759 43.1946H49.2107L49.241 43.1777C49.2613 43.1676 49.2849 43.1508 49.3084 43.1339C49.332 43.1137 49.3556 43.0934 49.3759 43.0698C49.3961 43.0463 49.4062 43.0193 49.4062 42.9923L49.9928 39.9551H50.9097L51.5299 43.1979L51.5333 43.1946Z" fill="#E9A94F"/>
<path d="M51.9715 40.2484C51.9715 40.2214 51.9614 40.191 51.9412 40.1573C51.921 40.1236 51.8974 40.0933 51.8738 40.0596C51.8502 40.0292 51.8266 40.0023 51.8063 39.982C51.7996 39.9753 51.7929 39.9686 51.7861 39.9652L51.776 39.9551H52.5985V41.3338H53.175C53.3772 41.3338 53.5356 41.4012 53.6435 41.5327C53.7548 41.6642 53.8087 41.8394 53.8087 42.0586V42.4732C53.8087 42.6957 53.7548 42.8743 53.6435 43.0024C53.5323 43.1305 53.3772 43.1979 53.175 43.1979H51.9749V40.2484H51.9715ZM52.5951 41.6237V42.7058C52.5951 42.7328 52.585 42.7597 52.5648 42.7833C52.5446 42.8069 52.5244 42.8305 52.4974 42.8474C52.4704 42.8676 52.4502 42.8811 52.4333 42.8912C52.4232 42.8946 52.4165 42.8979 52.4131 42.9013C52.4097 42.9013 52.4064 42.9013 52.4064 42.908H52.9794C53.0367 42.908 53.0839 42.8878 53.1244 42.8474C53.1648 42.8069 53.1851 42.7597 53.1851 42.7024V41.8192C53.1851 41.7619 53.1648 41.7147 53.1244 41.6776C53.0839 41.6406 53.0367 41.6203 52.9794 41.6203H52.5951V41.6237Z" fill="#E9A94F"/>
<path d="M47.3063 11.19L47.8962 10H49.0895C49.7469 10 50.2795 10.5326 50.2795 11.19V12.3799H49.0895V11.7866C49.0895 11.4596 48.8232 11.1933 48.4962 11.1933H47.8962" fill="#E9A94F"/>
<path d="M49.0826 22.4824L50.276 23.0723V24.2657C50.276 24.923 49.74 25.4556 49.0826 25.4556H47.8927V24.2657H48.486C48.813 24.2657 49.0793 23.9994 49.0793 23.6724V23.0723" fill="#E9A94F"/>
<path d="M36.0101 12.9694L34.8202 12.3795V11.1861C34.8202 10.5288 35.3528 10.0029 36.0101 10.0029H37.2001V11.1861H36.6068C36.2798 11.1861 36.0135 11.4524 36.0135 11.7794V12.3795" fill="#E9A94F"/>
<path d="M37.7934 24.2622L37.2035 25.4555H36.0101C35.3528 25.4555 34.8202 24.9196 34.8202 24.2622V23.0723H36.0101V23.6656C36.0101 23.9925 36.2764 24.2588 36.6034 24.2588H37.2035" fill="#E9A94F"/>
<path d="M41.9566 23.0792V20.7026H39.5801V19.5127H45.5231V20.7026H43.1466V23.0792H44.3365C44.9938 23.0792 45.5265 23.6118 45.5265 24.2691V25.4591H44.3365V24.8658C44.3365 24.5388 44.0702 24.2725 43.7432 24.2725H42.5533C42.8803 24.2725 43.1466 24.5388 43.1466 24.8658C43.1466 25.1928 42.8803 25.4591 42.5533 25.4591C42.2263 25.4591 41.96 25.1928 41.96 24.8658C41.96 24.5388 42.2263 24.2725 42.5533 24.2725H41.3633C41.0363 24.2725 40.77 24.5388 40.77 24.8658V25.4591H39.5801V24.2691C39.5801 23.6118 40.1127 23.0792 40.77 23.0792H41.96H41.9566Z" fill="#E9A94F"/>
<path d="M47.8996 18.3228H45.5231V20.6993H44.3331V14.7563H45.5231V17.1328H47.8996V15.9429C47.8996 15.2855 48.4322 14.7529 49.0896 14.7529H50.2795V15.9429H49.6862C49.3592 15.9429 49.0929 16.2092 49.0929 16.5362V17.7261C49.0929 17.3991 49.3592 17.1328 49.6862 17.1328C50.0132 17.1328 50.2795 17.3991 50.2795 17.7261C50.2795 18.0531 50.0132 18.3194 49.6862 18.3194C49.3592 18.3194 49.0929 18.0531 49.0929 17.7261V18.9161C49.0929 19.2431 49.3592 19.5094 49.6862 19.5094H50.2795V20.6993H49.0896C48.4322 20.6993 47.8996 20.1667 47.8996 19.5094V18.3194V18.3228Z" fill="#E9A94F"/>
<path d="M37.2001 17.1334H39.5766V14.7568H40.7666V20.6998H39.5766V18.3233H37.2001V19.5133C37.2001 20.1706 36.6675 20.7032 36.0101 20.7032H34.8202V19.5133H35.4135C35.7405 19.5133 36.0068 19.247 36.0068 18.92V17.73C36.0068 18.057 35.7405 18.3233 35.4135 18.3233C35.0865 18.3233 34.8202 18.057 34.8202 17.73C34.8202 17.403 35.0865 17.1367 35.4135 17.1367C35.7405 17.1367 36.0068 17.403 36.0068 17.73V16.5401C36.0068 16.2131 35.7405 15.9468 35.4135 15.9468H34.8202V14.7568H36.0101C36.6675 14.7568 37.2001 15.2894 37.2001 15.9468V17.1367V17.1334Z" fill="#E9A94F"/>
<path d="M43.1464 12.3799V14.7564H45.5229V15.9464H39.5799V14.7564H41.9564V12.3799H40.7665C40.1091 12.3799 39.5765 11.8473 39.5765 11.19V10H40.7665V10.5933C40.7665 10.9203 41.0328 11.1866 41.3598 11.1866H42.5497C42.2227 11.1866 41.9564 10.9203 41.9564 10.5933C41.9564 10.2663 42.2227 10 42.5497 10C42.8767 10 43.143 10.2663 43.143 10.5933C43.143 10.9203 42.8767 11.1866 42.5497 11.1866H43.7397C44.0667 11.1866 44.333 10.9203 44.333 10.5933V10H45.5229V11.19C45.5229 11.8473 44.9903 12.3799 44.333 12.3799H43.143H43.1464Z" fill="#E9A94F"/>
<path d="M19.391 37.1394C19.4686 37.1226 19.5394 37.0821 19.6034 37.0113C19.691 36.9237 19.7416 36.7855 19.7551 36.5866V30.5863C19.7551 30.0773 19.8798 29.6795 20.1259 29.393C20.372 29.1064 20.7226 28.9648 21.1776 28.9648H24.3194L24.2486 28.9986C24.2014 29.0221 24.1508 29.0559 24.0969 29.0997C24.043 29.1435 23.9924 29.1907 23.9452 29.248C23.898 29.3019 23.8744 29.3626 23.8744 29.4233V37.1428H24.6396V38.7777C24.6396 38.7305 24.6127 38.6631 24.5587 38.5788C24.5048 38.4912 24.3902 38.4002 24.2216 38.3024C24.0531 38.2047 23.7935 38.1204 23.4463 38.0496C23.0957 37.9788 22.5968 37.9383 21.9462 37.9316H21.4979C20.9788 37.9383 20.5473 37.9788 20.1967 38.0496C19.8461 38.1204 19.5865 38.2047 19.4146 38.3024C19.2427 38.4002 19.1315 38.4912 19.0775 38.5788C19.027 38.6665 19 38.7305 19 38.7777V37.1428H19.3877L19.391 37.1394ZM22.4721 37.1394V30.057C22.4721 29.9458 22.5463 29.8413 22.6946 29.7402L22.9171 29.6121H21.6125C21.4878 29.6121 21.3799 29.6559 21.2956 29.7402C21.208 29.8278 21.1675 29.9323 21.1675 30.057V36.3169C21.1507 36.6136 21.0698 36.89 20.9214 37.1394H22.4755H22.4721Z" fill="#E9A94F"/>
<path d="M28.3914 30.057C28.3914 29.993 28.4117 29.9357 28.4555 29.8817C28.4993 29.8278 28.5465 29.7806 28.6038 29.7402C28.6577 29.6997 28.7083 29.6694 28.7555 29.6458L28.8027 29.6222C28.8027 29.6222 28.8162 29.6188 28.8162 29.6121H27.5352C27.4004 29.6121 27.2925 29.6559 27.2049 29.7402C27.1172 29.8278 27.0768 29.9323 27.0768 30.057V31.7998C26.8947 31.8639 26.679 31.9515 26.4228 32.0695C26.1666 32.1875 25.9171 32.3291 25.6744 32.4942V30.5896C25.7048 29.5076 26.1801 28.9648 27.097 28.9648H28.3678C28.8229 28.9648 29.1735 29.1064 29.4196 29.393C29.6657 29.6795 29.7904 30.0773 29.7904 30.5863V32.1167C29.7904 32.6662 29.6286 33.0943 29.3083 33.3977C29.6286 33.6876 29.7904 34.1224 29.7904 34.7022V36.1854C29.7904 36.6641 29.6657 37.0552 29.4196 37.3552C29.1735 37.6586 28.8229 37.8069 28.3678 37.8069H27.097C26.6352 37.8069 26.2812 37.6586 26.0385 37.3585C25.7958 37.0619 25.6744 36.6675 25.6744 36.1821V34.5C25.9475 34.5944 26.4194 34.8101 27.0869 35.1472V36.7585C27.1037 36.8698 27.1509 36.9574 27.2285 37.0282C27.3161 37.1158 27.4172 37.1563 27.5352 37.1563H27.9364C27.9667 37.1563 28.0004 37.1529 28.0307 37.1428C28.1251 37.1259 28.2027 37.0889 28.2667 37.0248C28.3544 36.9372 28.3948 36.8327 28.3948 36.7079V33.9674C28.3948 33.7651 28.2903 33.6168 28.0779 33.5325C28.0375 33.5392 27.9869 33.5494 27.9262 33.5561C27.8622 33.5628 27.8083 33.573 27.7611 33.5797C27.7139 33.5864 27.6869 33.5932 27.6802 33.5932C27.4206 33.6572 27.2285 33.7246 27.1037 33.7988C26.979 33.873 26.8947 33.9471 26.8576 34.0179C26.8206 34.0887 26.8003 34.1393 26.8003 34.1696V32.865H28.0712C28.2903 32.7875 28.4015 32.6426 28.4015 32.4302V30.0537L28.3914 30.057Z" fill="#E9A94F"/>
<path d="M33.4378 34.2573H32.2007C31.7456 34.2573 31.395 34.1056 31.1489 33.8055C30.9028 33.5022 30.7781 33.1145 30.7781 32.6358V29.4233C30.7781 29.3592 30.7545 29.3019 30.7073 29.248C30.6601 29.1941 30.6096 29.1435 30.5556 29.0997C30.5017 29.0559 30.4511 29.0221 30.4039 28.9986L30.3567 28.975C30.3567 28.975 30.3433 28.9716 30.3433 28.9648H32.1804V33.1887C32.1973 33.3066 32.2445 33.4078 32.3288 33.4887C32.413 33.5696 32.5142 33.6134 32.6423 33.6134H32.9827C33.1075 33.6134 33.2153 33.5696 33.3063 33.4786C33.3974 33.3875 33.4412 33.2797 33.4412 33.155H33.4513V29.6256C33.4513 29.5615 33.4277 29.4941 33.3805 29.4199C33.3333 29.3458 33.2827 29.2716 33.2288 29.2008C33.1749 29.13 33.1243 29.0727 33.0771 29.0255C33.0603 29.0087 33.0468 28.9986 33.0299 28.9918L33.0063 28.9682H34.8536V36.1686C34.8536 36.6473 34.7323 37.0383 34.4895 37.3383C34.2468 37.6417 33.8929 37.79 33.4311 37.79H32.1602C31.7051 37.79 31.3546 37.6383 31.1085 37.3383C30.8624 37.0349 30.7377 36.6473 30.7377 36.1686V34.6281C31.0107 34.7224 31.4793 34.9382 32.1366 35.2753V36.7214C32.1434 36.8394 32.1905 36.9405 32.2782 37.0214C32.3658 37.1023 32.4703 37.1462 32.5951 37.1462H32.9962C33.1209 37.1462 33.2288 37.1023 33.3131 37.0113C33.4007 36.9203 33.4412 36.8124 33.4412 36.6877V34.264L33.4378 34.2573Z" fill="#E9A94F"/>
<path d="M40.2742 37.7867H39.0168L38.7101 35.845C38.6865 35.7506 38.5685 35.6461 38.3561 35.5281C38.1438 35.4101 37.7628 35.3259 37.2167 35.2685L36.8156 37.7867H35.5582L36.8628 29.4806C36.8223 29.4031 36.7718 29.3222 36.7111 29.2446C36.647 29.1671 36.5931 29.0997 36.5459 29.0457L36.4616 28.9648H38.8854L40.2742 37.79V37.7867ZM38.5213 34.6112L38.0393 31.6009L37.9213 30.0233L37.7932 31.6245L37.3212 34.6112H38.5213Z" fill="#E9A94F"/>
<path d="M42.4248 37.7871H41.0259V29.6226C41.0259 29.5114 40.9517 29.3732 40.8034 29.1979L40.5809 28.9619H43.7227C44.6328 28.9619 45.1081 29.5046 45.1452 30.5867V32.4812C45.1452 32.9666 45.0205 33.361 44.7744 33.6577C44.5283 33.9543 44.1777 34.106 43.7227 34.106H42.4282V37.7871H42.4248ZM43.2844 33.4689C43.4092 33.4689 43.517 33.4251 43.6081 33.3341C43.6991 33.243 43.7429 33.1352 43.7429 33.0104V30.0575C43.7429 29.9328 43.6991 29.8249 43.6081 29.7406C43.517 29.653 43.4092 29.6125 43.2844 29.6125H41.99L42.0608 29.6462C42.1012 29.6698 42.1484 29.7002 42.2091 29.7406C42.2664 29.7811 42.3203 29.8283 42.3608 29.8822C42.4046 29.9361 42.4248 29.9968 42.4248 30.0575V33.4689H43.2844Z" fill="#E9A94F"/>
<path d="M46.1328 29.6222C46.1328 29.5581 46.1092 29.4907 46.062 29.4166C46.0148 29.3424 45.9643 29.2682 45.9104 29.1974C45.8564 29.1267 45.8059 29.0693 45.7587 29.0221C45.7418 29.0053 45.7283 28.9952 45.7115 28.9884L45.6879 28.9648H47.5352V33.7651L47.252 35.636L48.9341 28.9648H50.5454V37.79H49.1465V32.9797L49.4162 31.1324L47.734 37.79H46.1328V29.6256V29.6222Z" fill="#E9A94F"/>
<path d="M56.1075 37.7871H54.6142L53.5658 34.2577C53.4411 33.9273 53.2287 33.6678 52.9321 33.4824V37.7871H51.5331V29.6226C51.5331 29.5114 51.4589 29.3732 51.3106 29.1979L51.0881 28.9619H52.9354V32.4576L53.0534 32.5149L54.4288 28.9619H55.8277L54.3681 32.7037H53.4748L53.9467 32.9498C54.4793 33.2397 54.8164 33.5801 54.958 33.9745L55.0389 34.1869L56.1109 37.7871H56.1075Z" fill="#E9A94F"/>
<path d="M61.2955 37.7867H60.0382L59.7314 35.845C59.7078 35.7506 59.5898 35.6461 59.3774 35.5281C59.1651 35.4101 58.7842 35.3259 58.2347 35.2685L57.8335 37.7867H56.5762L57.8807 29.4806C57.8403 29.4031 57.7897 29.3222 57.729 29.2446C57.665 29.1671 57.6111 29.0997 57.5639 29.0457L57.483 28.9648H59.9067L61.2955 37.79V37.7867ZM59.5426 34.6112L59.0606 31.6009L58.9426 30.0233L58.8145 31.6245L58.3426 34.6112H59.5426Z" fill="#E9A94F"/>
<path d="M64.7069 34.2573H63.4731C63.018 34.2573 62.6675 34.1056 62.4214 33.8055C62.1753 33.5022 62.0506 33.1145 62.0506 32.6358V29.4233C62.0506 29.3592 62.027 29.3019 61.9798 29.248C61.9326 29.1941 61.882 29.1435 61.8281 29.0997C61.7742 29.0559 61.7236 29.0221 61.6764 28.9986L61.6292 28.975C61.6292 28.975 61.6157 28.9716 61.6157 28.9648H63.4495V33.1887C63.4664 33.3066 63.5136 33.4078 63.5979 33.4887C63.6821 33.5696 63.7833 33.6134 63.908 33.6134H64.2484C64.3732 33.6134 64.481 33.5696 64.5721 33.4786C64.6631 33.3875 64.7069 33.2797 64.7069 33.155H64.7204V29.6256C64.7204 29.5615 64.6968 29.4941 64.6496 29.4199C64.6024 29.3458 64.5518 29.2716 64.4979 29.2008C64.444 29.13 64.3934 29.0727 64.3462 29.0255C64.3293 29.0087 64.3159 28.9986 64.299 28.9918L64.2754 28.9682H66.1227V36.1686C66.1227 36.6473 66.0013 37.0383 65.7586 37.3383C65.5159 37.6417 65.162 37.79 64.7002 37.79H63.4293C62.9742 37.79 62.6236 37.6383 62.3776 37.3383C62.1315 37.0349 62.0068 36.6473 62.0068 36.1686V34.6281C62.2798 34.7224 62.7484 34.9382 63.4057 35.2753V36.7214C63.4124 36.8394 63.4596 36.9405 63.5473 37.0214C63.6349 37.1023 63.7394 37.1462 63.8642 37.1462H64.2653C64.39 37.1462 64.4979 37.1023 64.5822 37.0113C64.6664 36.9203 64.7103 36.8124 64.7103 36.6877V34.264L64.7069 34.2573Z" fill="#E9A94F"/>
</svg>
