<svg width="445" height="96" viewBox="0 0 445 96" fill="none" xmlns="http://www.w3.org/2000/svg">
<g clip-path="url(#clip0_0_3)">
<path d="M80.7791 0H88.1545C92.2108 0 95.4997 3.30553 95.4997 7.3824V14.7648H88.1545V11.0736C88.1545 9.0344 86.5108 7.3824 84.4819 7.3824H80.7791" fill="white"/>
<path d="M95.5014 81.1777V88.5905C95.5014 92.6674 92.1823 95.9729 88.126 95.9729H80.7808V88.5905H84.4534C86.4823 88.5905 88.126 86.9385 88.126 84.8993V81.1777" fill="white"/>
<path d="M0.00170898 14.7678V7.35507C0.00170898 3.27668 3.29059 0 7.34843 0H14.6936V7.35507H11.021C8.99211 7.35507 7.34843 9.00707 7.34843 11.0463V14.7678" fill="white"/>
<path d="M14.7206 95.9866H7.34521C3.28888 95.9866 0 92.6507 0 88.5738V81.1914H7.34521V84.8826C7.34521 86.9218 8.98889 88.5738 11.0178 88.5738H14.7206" fill="white"/>
<path d="M44.0788 81.2077V66.4429H29.3884V59.0605H66.1145V66.4429H51.4241V81.2077H58.7693C62.8256 81.2077 66.1145 84.5133 66.1145 88.5901V95.9725H58.7693V92.2813C58.7693 90.2421 57.1256 88.5901 55.0967 88.5901H47.7514C49.7804 88.5901 51.4241 90.2421 51.4241 92.2813C51.4241 94.3205 49.7804 95.9725 47.7514 95.9725C45.7225 95.9725 44.0788 94.3205 44.0788 92.2813C44.0788 90.2421 45.7225 88.5901 47.7514 88.5901H40.4062C38.3773 88.5901 36.7336 90.2421 36.7336 92.2813V95.9725H29.3884V88.5901C29.3884 84.5133 32.6773 81.2077 36.7336 81.2077H44.0788Z" fill="white"/>
<path d="M80.8108 51.6784H66.1204V66.4432H58.7751V29.5312H66.1204V44.296H80.8108V36.9136C80.8108 32.8368 84.0997 29.5312 88.156 29.5312H95.5012V36.9136H91.8286C89.7997 36.9136 88.156 38.5657 88.156 40.6048V47.9872C88.156 45.948 89.7997 44.296 91.8286 44.296C93.8575 44.296 95.5012 45.948 95.5012 47.9872C95.5012 50.0264 93.8575 51.6784 91.8286 51.6784C89.7997 51.6784 88.156 50.0264 88.156 47.9872V55.3696C88.156 57.4088 89.7997 59.0608 91.8286 59.0608H95.5012V66.4432H88.156C84.0997 66.4432 80.8108 63.1377 80.8108 59.0608V51.6784Z" fill="white"/>
<path d="M14.698 44.296H29.3884V29.5312H36.7336V66.4432H29.3884V51.6784H14.698V59.0608C14.698 63.1377 11.4091 66.4432 7.35278 66.4432H0.00756836V59.0608H3.68017C5.70909 59.0608 7.35278 57.4088 7.35278 55.3696V47.9872C7.35278 50.0264 5.70909 51.6784 3.68017 51.6784C1.65125 51.6784 0.00756836 50.0249 0.00756836 47.9872C0.00756836 45.9496 1.65125 44.296 3.68017 44.296C5.70909 44.296 7.35278 45.948 7.35278 47.9872V40.6048C7.35278 38.5657 5.70909 36.9136 3.68017 36.9136H0.00756836V29.5312H7.35278C11.4091 29.5312 14.698 32.8368 14.698 36.9136V44.296Z" fill="white"/>
<path d="M51.4302 14.7648V29.5296H66.1206V36.912H29.3945V29.5296H44.0849V14.7648H36.7397C32.6834 14.7648 29.3945 11.4593 29.3945 7.3824V0H36.7397V3.6912C36.7397 5.73039 38.3834 7.3824 40.4123 7.3824H47.7576C45.7286 7.3824 44.0849 5.73039 44.0849 3.6912C44.0849 1.652 45.7286 0 47.756 0C49.7834 0 51.4286 1.652 51.4286 3.6912C51.4286 5.73039 49.785 7.3824 47.756 7.3824H55.1013C57.1302 7.3824 58.7739 5.73039 58.7739 3.6912V0H66.1191V7.3824C66.1191 11.4593 62.8302 14.7648 58.7739 14.7648H51.4286H51.4302Z" fill="white"/>
<path d="M119.289 52.7655C119.792 52.6652 120.246 52.3859 120.649 51.9303C121.202 51.3746 121.53 50.4636 121.631 49.1973V10.4784C121.631 7.18956 122.424 4.62045 124.01 2.77257C125.597 0.924698 127.849 0 130.771 0H150.939L150.486 0.227758C150.184 0.379597 149.856 0.595208 149.504 0.873072C149.151 1.15246 148.824 1.46828 148.522 1.82206C148.22 2.17737 148.069 2.55696 148.069 2.96085V52.7639H152.979V63.3167C152.979 63.0131 152.802 62.5818 152.45 62.0261C152.097 61.4688 151.379 60.8736 150.297 60.242C149.214 59.6088 147.552 59.0652 145.312 58.6097C143.07 58.1542 139.86 57.9006 135.681 57.8505H132.81C129.487 57.9006 126.704 58.1542 124.464 58.6097C122.222 59.0652 120.548 59.6088 119.44 60.242C118.332 60.8736 117.614 61.4688 117.288 62.0261C116.96 62.5818 116.797 63.0131 116.797 63.3167V52.7639H119.289V52.7655ZM139.08 52.7655V7.06202C139.08 6.35445 139.557 5.67117 140.515 5.01219L141.95 4.17708H133.566C132.759 4.17708 132.079 4.45646 131.526 5.01219C130.973 5.56792 130.695 6.25272 130.695 7.06202V47.4511C130.594 49.3749 130.065 51.1469 129.109 52.7655H139.08Z" fill="white"/>
<path d="M177.074 7.06202C177.074 6.65812 177.211 6.27853 177.489 5.92323C177.765 5.56944 178.08 5.26576 178.433 5.01219C178.785 4.76014 179.113 4.55668 179.415 4.40484L179.717 4.253C179.767 4.253 179.793 4.22871 179.793 4.17708H171.559C170.703 4.17708 169.997 4.45646 169.444 5.01219C168.891 5.56792 168.613 6.25272 168.613 7.06202V18.2981C167.455 18.7035 166.057 19.285 164.421 20.0442C162.783 20.8034 161.185 21.7144 159.625 22.7773V10.4784C159.825 3.49381 162.873 0 168.764 0H176.922C179.843 0 182.097 0.924697 183.683 2.77106C185.269 4.61893 186.062 7.18804 186.062 10.4769V20.3464C186.062 23.8903 185.029 26.6477 182.965 28.6216C185.029 30.4953 186.062 33.3043 186.062 37.0486V46.6145C186.062 49.7029 185.269 52.2204 183.683 54.1684C182.097 56.118 179.843 57.0913 176.922 57.0913H168.764C165.793 57.0913 163.527 56.1302 161.966 54.2064C160.404 52.2841 159.625 49.753 159.625 46.6145V35.758C161.386 36.3654 164.408 37.7577 168.689 39.9336V50.3345C168.789 51.0436 169.091 51.6251 169.595 52.0807C170.148 52.6379 170.804 52.9158 171.559 52.9158H174.128C174.329 52.9158 174.529 52.8915 174.732 52.8399C175.336 52.7396 175.839 52.4861 176.243 52.0807C176.796 51.5249 177.074 50.8417 177.074 50.0308V32.3416C177.074 31.0267 176.394 30.0899 175.034 29.5326C174.782 29.5842 174.454 29.6344 174.052 29.6845C173.649 29.7361 173.297 29.7862 172.995 29.8363C172.692 29.8879 172.516 29.9122 172.466 29.9122C170.804 30.3176 169.57 30.761 168.764 31.2408C167.958 31.7221 167.429 32.1898 167.178 32.6453C166.926 33.1008 166.801 33.4303 166.801 33.6323V25.2052H174.959C176.368 24.6996 177.074 23.7628 177.074 22.3962V7.06202Z" fill="white"/>
<path d="M213.256 34.1657H205.324C202.403 34.1657 200.15 33.1924 198.564 31.2428C196.978 29.2947 196.185 26.7772 196.185 23.6888V2.96281C196.185 2.55892 196.033 2.17932 195.731 1.82402C195.429 1.47023 195.101 1.15441 194.749 0.875026C194.396 0.597161 194.069 0.38155 193.767 0.229711L193.465 0.0778725C193.414 0.0778725 193.39 0.0535783 193.39 0.00195312H205.173V27.257C205.273 28.0162 205.589 28.6615 206.118 29.1929C206.646 29.7244 207.313 29.9901 208.119 29.9901H210.31C211.115 29.9901 211.807 29.7001 212.387 29.117C212.967 28.534 213.256 27.8401 213.256 27.0292H213.331V4.25344C213.331 3.84955 213.18 3.40618 212.878 2.92485C212.576 2.44504 212.248 1.97586 211.896 1.52034C211.543 1.06482 211.216 0.685227 210.914 0.38155C210.813 0.281336 210.712 0.205417 210.612 0.153792L210.461 0.00195312H222.32V46.4646C222.32 49.553 221.539 52.0705 219.979 54.0186C218.417 55.9682 216.15 56.9415 213.18 56.9415H205.022C202.101 56.9415 199.848 55.9682 198.262 54.0186C196.676 52.0705 195.882 49.553 195.882 46.4646V36.5192C197.644 37.1265 200.641 38.5189 204.871 40.6947V50.0328C204.921 50.792 205.223 51.4373 205.778 51.9687C206.331 52.5002 207.01 52.7659 207.817 52.7659H210.385C211.191 52.7659 211.871 52.4759 212.425 51.8928C212.978 51.3113 213.256 50.6159 213.256 49.805V34.1657Z" fill="white"/>
<path d="M260.918 56.9415H252.836L250.872 44.4148C250.721 43.8074 249.965 43.1241 248.605 42.3649C247.246 41.6058 244.803 41.05 241.278 40.6947L238.71 56.9415H230.628L239.012 3.3424C238.76 2.83678 238.432 2.33116 238.03 1.82402C237.627 1.31839 237.275 0.888691 236.973 0.533389L236.444 0.00195312H252.005L260.918 56.9415ZM249.663 36.4432L246.566 17.0079L245.811 6.83469L244.98 17.1597L241.958 36.4432H249.663Z" fill="white"/>
<path d="M278.518 56.941H269.529V4.253C269.529 3.54543 269.05 2.6344 268.094 1.51991L266.659 0H286.827C292.668 0 295.715 3.49229 295.967 10.4769V22.6999C295.967 25.8384 295.174 28.3695 293.588 30.2918C292.001 32.2156 289.747 33.1768 286.827 33.1768H278.518V56.9395V56.941ZM284.032 29.0786C284.837 29.0786 285.529 28.7886 286.109 28.2056C286.69 27.6225 286.978 26.9286 286.978 26.1178V7.06202C286.978 6.25272 286.688 5.56944 286.109 5.01219C285.529 4.45646 284.837 4.17708 284.032 4.17708H275.723L276.176 4.40484C276.427 4.55668 276.743 4.76014 277.121 5.01219C277.498 5.26577 277.825 5.56944 278.103 5.92323C278.379 6.27853 278.518 6.65813 278.518 7.06202V29.0786H284.032Z" fill="white"/>
<path d="M305.334 4.253C305.334 3.84911 305.183 3.40574 304.881 2.92441C304.578 2.4446 304.251 1.97542 303.899 1.51991C303.545 1.06439 303.219 0.684793 302.917 0.381115C302.815 0.280902 302.714 0.204982 302.614 0.153357L302.463 0.00151839H314.323V30.9766L312.51 43.0478L323.312 0H333.66V56.9395H324.671V25.8885L326.409 13.9692L315.607 56.9395H305.334V4.253Z" fill="white"/>
<path d="M373.166 56.941H363.573L356.85 34.1652C356.043 32.0395 354.684 30.3693 352.771 29.1545V56.941H343.782V4.253C343.782 3.54543 343.303 2.6344 342.347 1.51991L340.912 0H352.771V22.548L353.526 22.9276L362.364 0H371.353L361.986 24.1423H356.246L359.267 25.7367C362.69 27.6103 364.857 29.812 365.763 32.3416L366.292 33.7082L373.166 56.9395V56.941Z" fill="white"/>
<path d="M410.253 56.9415H402.17L400.207 44.4148C400.055 43.8074 399.3 43.1241 397.94 42.3649C396.581 41.6058 394.138 41.05 390.613 40.6947L388.045 56.9415H379.963L388.347 3.3424C388.095 2.83678 387.767 2.33116 387.365 1.82402C386.962 1.31839 386.61 0.888691 386.308 0.533389L385.779 0.00195312H401.34L410.253 56.9415ZM398.998 36.4432L395.901 17.0079L395.146 6.83469L394.315 17.1597L391.293 36.4432H398.998Z" fill="white"/>
<path d="M435.936 34.1657H428.004C425.082 34.1657 422.83 33.1924 421.244 31.2428C419.657 29.2947 418.864 26.7772 418.864 23.6888V2.96281C418.864 2.55892 418.713 2.17932 418.411 1.82402C418.109 1.47023 417.781 1.15441 417.429 0.875026C417.075 0.597161 416.749 0.38155 416.447 0.229711L416.145 0.0778725C416.094 0.0778725 416.069 0.0535783 416.069 0.00195312H427.853V27.257C427.953 28.0162 428.269 28.6615 428.797 29.1929C429.326 29.7244 429.992 29.9901 430.799 29.9901H432.99C433.795 29.9901 434.487 29.7001 435.067 29.117C435.647 28.534 435.936 27.8401 435.936 27.0292H436.011V4.25344C436.011 3.84955 435.86 3.40618 435.558 2.92485C435.256 2.44504 434.928 1.97586 434.576 1.52034C434.222 1.06482 433.896 0.685227 433.594 0.38155C433.493 0.281336 433.391 0.205417 433.292 0.153792L433.141 0.00195312H445V46.4646C445 49.553 444.219 52.0705 442.658 54.0186C441.096 55.9682 438.83 56.9415 435.86 56.9415H427.702C424.78 56.9415 422.528 55.9682 420.941 54.0186C419.355 52.0705 418.562 49.553 418.562 46.4646V36.5192C420.324 37.1265 423.321 38.5189 427.551 40.6947V50.0328C427.601 50.792 427.903 51.4373 428.457 51.9687C429.01 52.5002 429.69 52.7659 430.497 52.7659H433.065C433.87 52.7659 434.55 52.4759 435.105 51.8928C435.658 51.3113 435.936 50.6159 435.936 49.805V34.1657Z" fill="white"/>
<path d="M128.428 96.0004H124.832V76.5954C124.832 76.515 124.791 76.3935 124.711 76.231C124.489 75.8256 123.926 75.4916 123.019 75.2289C122.234 75.0057 121.358 74.8948 120.391 74.8948V96.0004H116.795V74.9252C116.795 74.6413 116.603 74.2769 116.221 73.832L115.647 73.2246H128.428V96.0004Z" fill="white"/>
<path d="M144.019 96.0004H140.786L140 90.9897C139.94 90.7468 139.638 90.4735 139.094 90.1698C138.55 89.8661 137.572 89.6444 136.163 89.5017L135.136 96.0004H131.903L135.256 74.5608C135.155 74.3588 135.025 74.1554 134.864 73.9534C134.702 73.7515 134.561 73.5784 134.441 73.4372L134.229 73.2246H140.453L144.019 96.0004ZM139.517 87.8011L138.278 80.027L137.976 75.9577L137.643 80.0877L136.435 87.8011H139.517Z" fill="white"/>
<path d="M151.059 96.0004H147.463V74.9252C147.463 74.6413 147.271 74.2769 146.889 73.832L146.315 73.2246H154.382C156.719 73.2246 157.937 74.6215 158.038 77.4154V82.3046C158.038 83.5603 157.721 84.5715 157.087 85.3413C156.452 86.1112 155.55 86.4953 154.382 86.4953H151.059V96.0004ZM153.264 84.8554C153.586 84.8554 153.864 84.7385 154.095 84.5062C154.326 84.2739 154.443 83.9945 154.443 83.6711V76.0488C154.443 75.7254 154.326 75.4521 154.095 75.2289C153.864 75.0057 153.586 74.8948 153.264 74.8948H149.941L150.122 74.9859C150.223 75.0467 150.349 75.1271 150.5 75.2289C150.651 75.3306 150.782 75.4521 150.892 75.5933C151.003 75.7345 151.059 75.8863 151.059 76.0488V84.8554H153.264Z" fill="white"/>
<path d="M173.841 96.0004H170.003L167.314 86.8901C166.992 86.0398 166.449 85.3717 165.683 84.8858V96.0004H162.087V74.9252C162.087 74.6413 161.895 74.2769 161.513 73.832L160.939 73.2246H165.683V82.2438L165.985 82.3957L169.52 73.2246H173.116L169.369 82.8815H167.073L168.281 83.5193C169.651 84.2678 170.517 85.1485 170.88 86.1613L171.091 86.7079L173.841 96.0004Z" fill="white"/>
<path d="M184.414 85.463H175.652V83.8535H184.414V85.463Z" fill="white"/>
<path d="M195.231 96.0004H191.968C190.8 96.0004 189.898 95.6102 189.264 94.8312C188.629 94.0523 188.312 93.0441 188.312 91.8097V77.4154C188.312 76.0989 188.629 75.0725 189.264 74.333C189.898 73.5936 190.8 73.2246 191.968 73.2246H195.231C197.588 73.2246 198.807 74.6215 198.887 77.4154V91.8097C198.887 93.0441 198.574 94.0523 197.951 94.8312C197.327 95.6102 196.42 96.0004 195.231 96.0004ZM194.113 94.3302C194.456 94.3302 194.737 94.2133 194.959 93.981C195.181 93.7486 195.292 93.4693 195.292 93.1458V76.0488C195.292 75.7254 195.181 75.4521 194.959 75.2289C194.737 75.0057 194.456 74.8948 194.113 74.8948H190.79L190.971 74.9859C191.092 75.0467 191.223 75.1271 191.364 75.2289C191.504 75.3306 191.636 75.4521 191.757 75.5933C191.877 75.7345 191.938 75.8863 191.938 76.0488V93.2369C191.957 93.5406 192.078 93.7988 192.3 94.0113C192.522 94.2239 192.784 94.3302 193.086 94.3302H194.113Z" fill="white"/>
<path d="M209.885 96.0004H206.29V74.8948L202.785 74.8645L202.755 74.8948C202.755 74.6109 202.563 74.2465 202.181 73.8016L201.606 73.2246H213.904V76.6258C213.602 75.4718 211.92 74.8948 208.858 74.8948C208.979 74.9358 209.156 75.036 209.387 75.1985C209.618 75.361 209.784 75.5523 209.885 75.7755V96.0004Z" fill="white"/>
<path d="M226.927 96.0004H217.409V74.9252C217.409 74.6413 217.217 74.2769 216.835 73.832L216.261 73.2246H226.927V76.6258C226.927 76.5241 226.871 76.3829 226.76 76.2006C226.65 76.0184 226.417 75.8271 226.065 75.6237C225.713 75.4217 225.174 75.2486 224.449 75.1074C223.724 74.9662 222.746 74.8842 221.518 74.8645L219.887 74.8948L220.461 75.2289C220.823 75.4916 221.004 75.7649 221.004 76.0488V83.246H225.114V86.6472C225.114 86.3435 224.902 86.0504 224.479 85.7665C223.855 85.3216 222.757 85.0377 221.186 84.9162H221.004V94.3606H226.927V96.0004Z" fill="white"/>
<path d="M243.212 96.0004H239.677L237.471 81.9705L236.928 75.9577L236.505 82.0009L234.329 96.0004H229.827L230.008 95.9093C230.129 95.8486 230.261 95.762 230.401 95.6512C230.542 95.5403 230.673 95.4128 230.794 95.2716C230.915 95.1304 230.975 94.9785 230.975 94.8161L234.359 73.2246H239.647L243.212 96.0004Z" fill="white"/>
<path d="M250.857 83.6407H254.18C255.348 83.6407 256.25 84.0264 256.884 84.7947C257.519 85.5645 257.836 86.5758 257.836 87.8315V91.8097C257.836 93.1048 257.519 94.1282 256.884 94.8768C256.25 95.6254 255.348 96.0004 254.18 96.0004H247.261V74.9252C247.261 74.7627 247.201 74.5866 247.08 74.3938C246.959 74.2009 246.827 74.0142 246.687 73.832C246.546 73.6498 246.415 73.4979 246.294 73.3764C246.253 73.3355 246.214 73.3051 246.173 73.2853L246.113 73.2246H250.857V83.6407ZM250.857 93.1762C250.857 93.3387 250.801 93.4905 250.69 93.6317C250.58 93.7729 250.449 93.8944 250.298 93.9961C250.146 94.0979 250.021 94.1783 249.92 94.2391C249.859 94.2588 249.819 94.2801 249.799 94.2998C249.779 94.2998 249.769 94.3104 249.769 94.3302H253.062C253.384 94.3302 253.66 94.2193 253.893 93.9961C254.124 93.7729 254.241 93.4996 254.241 93.1762V86.4649C254.241 86.1415 254.124 85.8621 253.893 85.6298C253.66 85.3975 253.384 85.2806 253.062 85.2806H250.857V93.1762Z" fill="white"/>
</g>
<defs>
<clipPath id="clip0_0_3">
<rect width="445" height="96" fill="white"/>
</clipPath>
</defs>
</svg>
