<svg width="50" height="50" viewBox="0 0 50 50" fill="none" xmlns="http://www.w3.org/2000/svg">
<g clip-path="url(#clip0_551_1209)">
<path d="M12.6787 49.8232C9.70517 49.6879 8.08987 49.1931 7.01548 48.774C5.59188 48.2198 4.57693 47.56 3.50849 46.493C2.44004 45.426 1.77876 44.4111 1.22745 42.9875C0.808393 41.9131 0.31355 40.2978 0.178322 37.3243C0.0297203 34.11 0 33.1456 0 25.0022C0 16.8589 0.0326924 15.8959 0.176836 12.6787C0.312063 9.70517 0.809879 8.09285 1.22596 7.01548C1.78025 5.59188 2.44153 4.57693 3.507 3.507C4.57396 2.44004 5.58891 1.77728 7.014 1.22596C8.08839 0.806907 9.70369 0.312063 12.6772 0.176836C15.8929 0.0297203 16.8589 0 24.9993 0C33.1426 0 34.1056 0.0326924 37.3228 0.176836C40.2963 0.312063 41.9086 0.809879 42.986 1.22596C44.4096 1.77728 45.4246 2.44004 46.493 3.507C47.5614 4.57396 48.2198 5.59039 48.774 7.014C49.1931 8.08839 49.6879 9.70369 49.8232 12.6772C49.9703 15.8944 50 16.8574 50 25.0007C50 33.1411 49.9703 34.1071 49.8232 37.3243C49.6879 40.2978 49.1901 41.9131 48.774 42.9875C48.2198 44.4111 47.56 45.426 46.493 46.493C45.426 47.56 44.4096 48.2198 42.986 48.774C41.9116 49.1931 40.2963 49.6879 37.3228 49.8232C34.1085 49.9703 33.1426 50 24.9993 50C16.8589 50 15.8929 49.9718 12.6787 49.8232Z" fill="url(#paint0_radial_551_1209)"/>
<path d="M12.6787 49.8232C9.70517 49.6879 8.08987 49.1931 7.01548 48.774C5.59188 48.2198 4.57693 47.56 3.50849 46.493C2.44004 45.426 1.77876 44.4111 1.22745 42.9875C0.808393 41.9131 0.31355 40.2978 0.178322 37.3243C0.0297203 34.11 0 33.1456 0 25.0022C0 16.8589 0.0326924 15.8959 0.176836 12.6787C0.312063 9.70517 0.809879 8.09285 1.22596 7.01548C1.78025 5.59188 2.44153 4.57693 3.507 3.507C4.57396 2.44004 5.58891 1.77728 7.014 1.22596C8.08839 0.806907 9.70369 0.312063 12.6772 0.176836C15.8929 0.0297203 16.8589 0 24.9993 0C33.1426 0 34.1056 0.0326924 37.3228 0.176836C40.2963 0.312063 41.9086 0.809879 42.986 1.22596C44.4096 1.77728 45.4246 2.44004 46.493 3.507C47.5614 4.57396 48.2198 5.59039 48.774 7.014C49.1931 8.08839 49.6879 9.70369 49.8232 12.6772C49.9703 15.8944 50 16.8574 50 25.0007C50 33.1411 49.9703 34.1071 49.8232 37.3243C49.6879 40.2978 49.1901 41.9131 48.774 42.9875C48.2198 44.4111 47.56 45.426 46.493 46.493C45.426 47.56 44.4096 48.2198 42.986 48.774C41.9116 49.1931 40.2963 49.6879 37.3228 49.8232C34.1085 49.9703 33.1426 50 24.9993 50C16.8589 50 15.8929 49.9718 12.6787 49.8232Z" fill="url(#paint1_radial_551_1209)"/>
<path d="M18.861 25.1065C18.861 21.687 21.6323 18.9142 25.0518 18.9142C28.4712 18.9142 31.244 21.687 31.244 25.1065C31.244 28.5259 28.4712 31.2987 25.0518 31.2987C21.6323 31.2987 18.861 28.5259 18.861 25.1065ZM15.5136 25.1065C15.5136 30.3744 19.7838 34.6446 25.0518 34.6446C30.3197 34.6446 34.5899 30.3744 34.5899 25.1065C34.5899 19.8385 30.3197 15.5683 25.0518 15.5683C19.7838 15.5683 15.5138 19.8382 15.5138 25.1065M32.7386 15.1901C32.7385 15.631 32.869 16.062 33.1138 16.4287C33.3586 16.7953 33.7066 17.0811 34.1138 17.25C34.5211 17.4189 34.9692 17.4632 35.4017 17.3774C35.8341 17.2915 36.2313 17.0794 36.5432 16.7678C36.8551 16.4562 37.0675 16.0591 37.1537 15.6267C37.2399 15.1944 37.1959 14.7462 37.0274 14.3388C36.8588 13.9315 36.5732 13.5832 36.2068 13.3381C35.8403 13.0931 35.4094 12.9622 34.9686 12.962H34.9677C34.3767 12.9623 33.8101 13.1971 33.3921 13.6148C32.9742 14.0326 32.7391 14.5992 32.7386 15.1901ZM17.5474 40.2264C15.7364 40.1439 14.752 39.8422 14.0979 39.5874C13.2307 39.2498 12.6119 38.8477 11.9613 38.198C11.3107 37.5483 10.908 36.9301 10.5719 36.0629C10.3169 35.409 10.0152 34.4244 9.93289 32.6134C9.84284 30.6554 9.82486 30.0672 9.82486 25.1068C9.82486 20.1463 9.84432 19.5598 9.93289 17.6001C10.0154 15.7891 10.3193 14.8064 10.5719 14.1507C10.9095 13.2834 11.3116 12.6646 11.9613 12.0141C12.611 11.3635 13.2292 10.9608 14.0979 10.6246C14.7517 10.3696 15.7364 10.068 17.5474 9.98564C19.5054 9.89559 20.0935 9.87761 25.0518 9.87761C30.01 9.87761 30.5988 9.89678 32.5584 9.98594C34.3694 10.0684 35.3521 10.3723 36.0079 10.6249C36.8751 10.9611 37.4939 11.3647 38.1445 12.0144C38.795 12.664 39.1963 13.2837 39.5339 14.1509C39.7889 14.8048 40.0906 15.7894 40.1729 17.6004C40.2629 19.5601 40.2809 20.1466 40.2809 25.1071C40.2809 30.0675 40.2629 30.6541 40.1729 32.6137C40.0904 34.4247 39.7873 35.409 39.5339 36.0632C39.1963 36.9304 38.7942 37.5492 38.1445 38.1983C37.4948 38.8474 36.8751 39.2501 36.0079 39.5877C35.354 39.8427 34.3694 40.1444 32.5584 40.2267C30.6004 40.3167 30.0122 40.3347 25.0518 40.3347C20.0913 40.3347 19.5048 40.3167 17.5474 40.2267M17.3936 6.64374C15.4161 6.73379 14.0649 7.04734 12.8849 7.50652C11.6635 7.98071 10.6282 8.61687 9.59437 9.64906C8.56055 10.6812 7.92602 11.7167 7.45184 12.9395C6.99266 14.1203 6.67911 15.4708 6.58905 17.4483C6.49752 19.4288 6.47656 20.062 6.47656 25.1065C6.47656 30.1509 6.49752 30.7841 6.58905 32.7646C6.67911 34.7422 6.99266 36.0926 7.45184 37.2734C7.92602 38.4947 8.5607 39.5321 9.59437 40.5639C10.628 41.5956 11.662 42.2309 12.8849 42.7064C14.0671 43.1656 15.4161 43.4791 17.3936 43.5692C19.3752 43.6592 20.0073 43.6817 25.0518 43.6817C30.0962 43.6817 30.7294 43.6607 32.71 43.5692C34.6875 43.4791 36.0379 43.1656 37.2187 42.7064C38.44 42.2309 39.4753 41.596 40.5092 40.5639C41.543 39.5317 42.1762 38.4947 42.6517 37.2734C43.1109 36.0926 43.4259 34.7421 43.5145 32.7646C43.6045 30.7826 43.6255 30.1509 43.6255 25.1065C43.6255 20.062 43.6045 19.4288 43.5145 17.4483C43.4244 15.4707 43.1109 14.1196 42.6517 12.9395C42.1762 11.7182 41.5414 10.6829 40.5092 9.64906C39.477 8.61524 38.44 7.98071 37.2202 7.50652C36.0379 7.04734 34.6874 6.73231 32.7114 6.64374C30.7306 6.55324 30.0977 6.53125 25.054 6.53125C20.0103 6.53125 19.3759 6.5522 17.3943 6.64374" fill="white"/>
</g>
<defs>
<radialGradient id="paint0_radial_551_1209" cx="0" cy="0" r="1" gradientUnits="userSpaceOnUse" gradientTransform="translate(3.23595 48.9047) scale(63.4814)">
<stop offset="0.09" stop-color="#FA8F21"/>
<stop offset="0.78" stop-color="#D82D7E"/>
</radialGradient>
<radialGradient id="paint1_radial_551_1209" cx="0" cy="0" r="1" gradientUnits="userSpaceOnUse" gradientTransform="translate(34.6333 47.2992) scale(55.8643)">
<stop offset="0.64" stop-color="#8C3AAA" stop-opacity="0"/>
<stop offset="1" stop-color="#8C3AAA"/>
</radialGradient>
<clipPath id="clip0_551_1209">
<rect width="50" height="50" fill="white"/>
</clipPath>
</defs>
</svg>
