<svg width="23" height="26" viewBox="0 0 23 26" fill="none" xmlns="http://www.w3.org/2000/svg">
<circle cx="11.1191" cy="5.5" r="4.7" fill="#C2C2C2" stroke="#C2C2C2" stroke-width="1.6"/>
<mask id="path-2-inside-1_614_2235" fill="white">
<path d="M11.1189 13.3027C15.3344 13.3027 19.07 15.3568 21.3793 18.5187C23.9853 22.0866 20.2345 26 15.8162 26H6.42168C2.0034 26 -1.74739 22.0866 0.858555 18.5187C3.16793 15.3568 6.90348 13.3027 11.1189 13.3027Z"/>
</mask>
<path d="M11.1189 13.3027C15.3344 13.3027 19.07 15.3568 21.3793 18.5187C23.9853 22.0866 20.2345 26 15.8162 26H6.42168C2.0034 26 -1.74739 22.0866 0.858555 18.5187C3.16793 15.3568 6.90348 13.3027 11.1189 13.3027Z" fill="#C2C2C2"/>
<path d="M11.1189 13.3027V11.7027H11.1189L11.1189 13.3027ZM0.858555 18.5187L2.15062 19.4624L0.858555 18.5187ZM21.3793 18.5187L20.0873 19.4624L21.3793 18.5187ZM11.1189 13.3027V14.9027C14.8021 14.9027 18.0662 16.6952 20.0873 19.4624L21.3793 18.5187L22.6714 17.575C20.0737 14.0184 15.8667 11.7027 11.1189 11.7027V13.3027ZM15.8162 26V24.4H6.42168V26V27.6H15.8162V26ZM0.858555 18.5187L2.15062 19.4624C4.17169 16.6952 7.43579 14.9027 11.1189 14.9027L11.1189 13.3027L11.1189 11.7027C6.37116 11.7027 2.16417 14.0184 -0.433512 17.575L0.858555 18.5187ZM6.42168 26V24.4C4.6515 24.4 3.08006 23.6065 2.24484 22.5847C1.83733 22.0862 1.63393 21.5731 1.60398 21.0932C1.57506 20.6299 1.69933 20.0803 2.15062 19.4624L0.858555 18.5187L-0.433512 17.575C-1.2852 18.7411 -1.66931 20.0186 -1.58981 21.2925C-1.51133 22.5499 -0.98951 23.6841 -0.232779 24.6099C1.26048 26.4368 3.77357 27.6 6.42168 27.6V26ZM21.3793 18.5187L20.0873 19.4624C20.5386 20.0803 20.6628 20.6299 20.6339 21.0932C20.604 21.5731 20.4006 22.0862 19.993 22.5847C19.1578 23.6065 17.5864 24.4 15.8162 24.4V26V27.6C18.4643 27.6 20.9774 26.4368 22.4707 24.6099C23.2274 23.6841 23.7492 22.5499 23.8277 21.2925C23.9072 20.0186 23.5231 18.7411 22.6714 17.575L21.3793 18.5187Z" fill="#C2C2C2" mask="url(#path-2-inside-1_614_2235)"/>
</svg>
