<svg width="890" height="115" viewBox="0 0 890 115" fill="none" xmlns="http://www.w3.org/2000/svg">
<rect width="160.674" height="50" rx="15" fill="white" fill-opacity="0.2"/>
<path fill-rule="evenodd" clip-rule="evenodd" d="M20 11.1744C20 10.8019 20.3019 10.5 20.6744 10.5C21.0469 10.5 21.3488 10.8019 21.3488 11.1744V17.9186C21.3488 18.2911 21.6508 18.593 22.0233 18.593C22.3957 18.593 22.6977 18.2911 22.6977 17.9186V11.1744C22.6977 10.8019 22.9996 10.5 23.3721 10.5C23.7446 10.5 24.0465 10.8019 24.0465 11.1744V17.9186C24.0465 18.2911 24.3485 18.593 24.7209 18.593C25.0934 18.593 25.3953 18.2911 25.3953 17.9186V11.1744C25.3953 10.8019 25.6973 10.5 26.0698 10.5C26.4422 10.5 26.7442 10.8019 26.7442 11.1744V18.593V19.9419C26.7442 20.3143 26.4422 20.6163 26.0698 20.6163H25.7326C25.1739 20.6163 24.7209 21.0692 24.7209 21.6279V38.1512C24.7209 38.8961 24.117 39.5 23.3721 39.5C22.6272 39.5 22.0233 38.8961 22.0233 38.1512V21.6279C22.0233 21.0692 21.5703 20.6163 21.0116 20.6163H20.6744C20.3019 20.6163 20 20.3143 20 19.9419V18.593V11.1744Z" fill="#C2C2C2"/>
<path fill-rule="evenodd" clip-rule="evenodd" d="M44.2029 13.4551C41.7669 11.6008 38.7263 10.5 35.4286 10.5C33.0272 10.5 30.7622 11.0838 28.7676 12.1171V16.5693L28.7677 16.5694L28.7678 16.5695V18.5927V20.6159C28.7678 21.7333 27.862 22.6392 26.7445 22.6392L26.7444 22.6394L26.7444 36.6129C29.1651 38.426 32.1714 39.5 35.4286 39.5C39.0746 39.5 42.4063 38.1543 44.9542 35.9325V30.0588C44.9542 29.686 44.6519 29.3837 44.2791 29.3837C43.1617 29.3837 42.2558 28.4779 42.2558 27.3605V21.9651C42.2558 21.8091 42.2739 21.6536 42.3096 21.5017L44.2029 13.4551ZM26.7444 13.3871C26.514 13.5597 26.289 13.7389 26.0696 13.9245V16.232C26.0696 16.4183 26.2206 16.5694 26.407 16.5694C26.5933 16.5694 26.7444 16.4183 26.7444 16.232V13.3871ZM22.0234 30.5372C22.6734 32.1089 23.5916 33.5414 24.7211 34.7776V23.988C24.7211 23.2431 24.1172 22.6392 23.3723 22.6392C22.6273 22.6392 22.0234 23.2431 22.0234 23.988V30.5372Z" fill="#C2C2C2"/>
<path fill-rule="evenodd" clip-rule="evenodd" d="M49.6746 10.5002C49.6746 10.5001 49.6745 10.5 49.6744 10.5H46.977C46.9768 10.5 46.9767 10.5001 46.9767 10.5002V10.5009C46.9767 10.5009 46.9767 10.501 46.9767 10.5011L44.3689 21.5841C44.3094 21.8373 44.2793 22.0964 44.2793 22.3565V26.0117C44.2793 26.7566 44.8831 27.3605 45.628 27.3605C46.3729 27.3605 46.9767 27.9643 46.9767 28.7092V38.1512C46.9767 38.8961 47.5806 39.5 48.3256 39.5C49.0705 39.5 49.6744 38.8961 49.6744 38.1512V27.3606C49.6744 27.3605 49.6745 27.3605 49.6745 27.3605C49.6746 27.3605 49.6746 27.3604 49.6746 27.3603V10.5002Z" fill="#C2C2C2"/>
<path d="M66.0948 32.1989C65.1573 32.1989 64.3216 32.0379 63.5877 31.7159C62.8585 31.3939 62.2785 30.9465 61.8476 30.3736C61.4215 29.7959 61.1895 29.1259 61.1516 28.3636H62.9414C62.9792 28.8324 63.1402 29.2372 63.4243 29.5781C63.7084 29.9143 64.0801 30.1747 64.5394 30.3594C64.9987 30.544 65.5076 30.6364 66.0664 30.6364C66.6914 30.6364 67.2453 30.5275 67.7283 30.3097C68.2112 30.0919 68.59 29.7888 68.8647 29.4006C69.1393 29.0123 69.2766 28.5625 69.2766 28.0511C69.2766 27.5161 69.144 27.045 68.8789 26.6378C68.6137 26.2259 68.2255 25.9039 67.7141 25.6719C67.2027 25.4399 66.5777 25.3239 65.8391 25.3239H64.6743V23.7614H65.8391C66.4167 23.7614 66.9234 23.6572 67.359 23.4489C67.7993 23.2405 68.1426 22.947 68.3888 22.5682C68.6398 22.1894 68.7652 21.7443 68.7652 21.233C68.7652 20.7405 68.6563 20.312 68.4385 19.9474C68.2207 19.5829 67.913 19.2988 67.5152 19.0952C67.1222 18.8916 66.6582 18.7898 66.1232 18.7898C65.6213 18.7898 65.1478 18.8821 64.7027 19.0668C64.2624 19.2467 63.9025 19.5095 63.6232 19.8551C63.3438 20.196 63.1923 20.608 63.1686 21.0909H61.4641C61.4925 20.3286 61.7221 19.661 62.153 19.0881C62.5839 18.5104 63.1473 18.0606 63.8434 17.7386C64.5441 17.4167 65.3135 17.2557 66.1516 17.2557C67.0512 17.2557 67.823 17.438 68.4669 17.8026C69.1109 18.1624 69.6057 18.6383 69.9513 19.2301C70.2969 19.822 70.4698 20.4612 70.4698 21.1477C70.4698 21.9669 70.2543 22.6652 69.8235 23.2429C69.3973 23.8205 68.8173 24.2206 68.0834 24.4432V24.5568C69.002 24.7083 69.7193 25.099 70.2354 25.7287C70.7515 26.3537 71.0095 27.1278 71.0095 28.0511C71.0095 28.8419 70.7941 29.5521 70.3632 30.1818C69.9371 30.8068 69.3547 31.2992 68.6161 31.6591C67.8774 32.0189 67.037 32.1989 66.0948 32.1989ZM77.153 32.2557C76.4617 32.2557 75.8344 32.1255 75.2709 31.8651C74.7075 31.5999 74.26 31.2188 73.9286 30.7216C73.5971 30.2197 73.4314 29.6136 73.4314 28.9034C73.4314 28.2784 73.5545 27.7718 73.8007 27.3835C74.0469 26.9905 74.376 26.6828 74.788 26.4602C75.1999 26.2377 75.6544 26.072 76.1516 25.9631C76.6535 25.8494 77.1577 25.7595 77.6644 25.6932C78.3273 25.608 78.8647 25.544 79.2766 25.5014C79.6933 25.4541 79.9963 25.3759 80.1857 25.267C80.3798 25.1581 80.4769 24.9687 80.4769 24.6989V24.642C80.4769 23.9413 80.2851 23.3968 79.9016 23.0085C79.5228 22.6203 78.9475 22.4261 78.1757 22.4261C77.3755 22.4261 76.7482 22.6013 76.2936 22.9517C75.8391 23.3021 75.5195 23.6761 75.3348 24.0739L73.7439 23.5057C74.028 22.8428 74.4068 22.3267 74.8803 21.9574C75.3585 21.5833 75.8793 21.3229 76.4428 21.1761C77.011 21.0246 77.5697 20.9489 78.1189 20.9489C78.4693 20.9489 78.8718 20.9915 79.3263 21.0767C79.7856 21.1572 80.2283 21.3253 80.6544 21.581C81.0853 21.8366 81.4428 22.2225 81.7269 22.7386C82.011 23.2547 82.153 23.946 82.153 24.8125V32H80.4769V30.5227H80.3916C80.278 30.7595 80.0886 31.0128 79.8235 31.2827C79.5583 31.5526 79.2056 31.7822 78.7652 31.9716C78.3249 32.161 77.7875 32.2557 77.153 32.2557ZM77.4087 30.75C78.0716 30.75 78.6303 30.6198 79.0848 30.3594C79.5441 30.099 79.8898 29.7628 80.1218 29.3509C80.3585 28.9389 80.4769 28.5057 80.4769 28.0511V26.517C80.4059 26.6023 80.2496 26.6804 80.0081 26.7514C79.7714 26.8177 79.4968 26.8769 79.1843 26.929C78.8765 26.9763 78.5758 27.0189 78.2823 27.0568C77.9934 27.09 77.7591 27.1184 77.5791 27.142C77.1435 27.1989 76.7363 27.2912 76.3576 27.419C75.9835 27.5421 75.6805 27.7292 75.4485 27.9801C75.2212 28.2263 75.1076 28.5625 75.1076 28.9886C75.1076 29.571 75.323 30.0114 75.7539 30.3097C76.1895 30.6032 76.7411 30.75 77.4087 30.75ZM85.2123 32V21.0909H89.6725C90.8468 21.0909 91.7795 21.3561 92.4708 21.8864C93.1621 22.4167 93.5078 23.1174 93.5078 23.9886C93.5078 24.6515 93.3113 25.1652 92.9183 25.5298C92.5253 25.8897 92.021 26.1335 91.4055 26.2614C91.808 26.3182 92.1986 26.4602 92.5774 26.6875C92.9609 26.9148 93.2781 27.2273 93.5291 27.625C93.78 28.018 93.9055 28.5009 93.9055 29.0739C93.9055 29.6326 93.7634 30.1321 93.4794 30.5724C93.1953 31.0128 92.7881 31.3608 92.2578 31.6165C91.7275 31.8722 91.093 32 90.3544 32H85.2123ZM86.8032 30.4659H90.3544C90.932 30.4659 91.3842 30.3286 91.7109 30.054C92.0376 29.7794 92.201 29.4053 92.201 28.9318C92.201 28.3684 92.0376 27.9257 91.7109 27.6037C91.3842 27.277 90.932 27.1136 90.3544 27.1136H86.8032V30.4659ZM86.8032 25.6648H89.6725C90.1224 25.6648 90.5082 25.6032 90.8302 25.4801C91.1522 25.3523 91.3984 25.1723 91.5688 24.9403C91.744 24.7036 91.8316 24.4242 91.8316 24.1023C91.8316 23.643 91.6399 23.2831 91.2563 23.0227C90.8728 22.7576 90.3449 22.625 89.6725 22.625H86.8032V25.6648ZM95.8178 22.6534V21.0909H104.681V22.6534H101.102V32H99.4257V22.6534H95.8178ZM107.126 36.0909V21.0909H108.746V22.8239H108.945C109.068 22.6345 109.238 22.393 109.456 22.0994C109.678 21.8011 109.996 21.536 110.408 21.304C110.824 21.0672 111.388 20.9489 112.098 20.9489C113.017 20.9489 113.826 21.1785 114.527 21.6378C115.228 22.0971 115.775 22.7481 116.168 23.5909C116.561 24.4337 116.757 25.428 116.757 26.5739C116.757 27.7292 116.561 28.7306 116.168 29.5781C115.775 30.4209 115.23 31.0743 114.534 31.5384C113.838 31.9976 113.035 32.2273 112.126 32.2273C111.426 32.2273 110.865 32.1113 110.443 31.8793C110.022 31.6425 109.697 31.375 109.47 31.0767C109.243 30.7737 109.068 30.5227 108.945 30.3239H108.803V36.0909H107.126ZM108.774 26.5455C108.774 27.3693 108.895 28.0961 109.136 28.7259C109.378 29.3509 109.731 29.8409 110.195 30.196C110.659 30.5464 111.227 30.7216 111.899 30.7216C112.6 30.7216 113.185 30.5369 113.653 30.1676C114.127 29.7936 114.482 29.2917 114.719 28.6619C114.96 28.0275 115.081 27.322 115.081 26.5455C115.081 25.7784 114.963 25.0871 114.726 24.4716C114.494 23.8513 114.141 23.3613 113.668 23.0014C113.199 22.6368 112.609 22.4545 111.899 22.4545C111.217 22.4545 110.644 22.6274 110.18 22.973C109.716 23.3139 109.366 23.7921 109.129 24.4077C108.892 25.0185 108.774 25.7311 108.774 26.5455ZM122.524 32.2557C121.833 32.2557 121.205 32.1255 120.642 31.8651C120.079 31.5999 119.631 31.2188 119.3 30.7216C118.968 30.2197 118.803 29.6136 118.803 28.9034C118.803 28.2784 118.926 27.7718 119.172 27.3835C119.418 26.9905 119.747 26.6828 120.159 26.4602C120.571 26.2377 121.026 26.072 121.523 25.9631C122.025 25.8494 122.529 25.7595 123.035 25.6932C123.698 25.608 124.236 25.544 124.648 25.5014C125.064 25.4541 125.367 25.3759 125.557 25.267C125.751 25.1581 125.848 24.9687 125.848 24.6989V24.642C125.848 23.9413 125.656 23.3968 125.273 23.0085C124.894 22.6203 124.319 22.4261 123.547 22.4261C122.747 22.4261 122.119 22.6013 121.665 22.9517C121.21 23.3021 120.891 23.6761 120.706 24.0739L119.115 23.5057C119.399 22.8428 119.778 22.3267 120.251 21.9574C120.73 21.5833 121.25 21.3229 121.814 21.1761C122.382 21.0246 122.941 20.9489 123.49 20.9489C123.84 20.9489 124.243 20.9915 124.697 21.0767C125.157 21.1572 125.599 21.3253 126.026 21.581C126.456 21.8366 126.814 22.2225 127.098 22.7386C127.382 23.2547 127.524 23.946 127.524 24.8125V32H125.848V30.5227H125.763C125.649 30.7595 125.46 31.0128 125.195 31.2827C124.929 31.5526 124.577 31.7822 124.136 31.9716C123.696 32.161 123.159 32.2557 122.524 32.2557ZM122.78 30.75C123.443 30.75 124.001 30.6198 124.456 30.3594C124.915 30.099 125.261 29.7628 125.493 29.3509C125.73 28.9389 125.848 28.5057 125.848 28.0511V26.517C125.777 26.6023 125.621 26.6804 125.379 26.7514C125.142 26.8177 124.868 26.8769 124.555 26.929C124.248 26.9763 123.947 27.0189 123.653 27.0568C123.365 27.09 123.13 27.1184 122.95 27.142C122.515 27.1989 122.107 27.2912 121.729 27.419C121.355 27.5421 121.052 27.7292 120.82 27.9801C120.592 28.2263 120.479 28.5625 120.479 28.9886C120.479 29.571 120.694 30.0114 121.125 30.3097C121.561 30.6032 122.112 30.75 122.78 30.75ZM130.583 32V21.0909H132.26V25.8352H133.367L137.288 21.0909H139.447L135.044 26.3466L139.504 32H137.345L133.765 27.3977H132.26V32H130.583Z" fill="#C2C2C2"/>
<rect x="175.674" width="172.733" height="50" rx="15" fill="white" fill-opacity="0.2"/>
<path fill-rule="evenodd" clip-rule="evenodd" d="M210.041 10.6328C202.106 10.6328 195.674 17.0649 195.674 24.9993C195.674 32.9337 202.106 39.3658 210.041 39.3658C217.975 39.3658 224.407 32.9337 224.407 24.9993C224.407 17.0649 217.975 10.6328 210.041 10.6328ZM204.361 18.6521C204.361 17.914 204.959 17.3157 205.697 17.3157C205.709 17.3157 205.72 17.3158 205.732 17.3161H210.709C213.477 17.3161 215.72 19.5599 215.72 22.3277C215.72 25.0955 213.477 27.3393 210.709 27.3393H207.702C207.333 27.3393 207.033 27.6384 207.033 28.0075V32.0163C207.033 32.7544 206.435 33.3527 205.697 33.3527C204.959 33.3527 204.361 32.7544 204.361 32.0163V18.6521ZM207.702 19.989C207.333 19.989 207.034 20.2881 207.034 20.6572V23.9982C207.034 24.3673 207.333 24.6664 207.702 24.6664H210.709C212 24.6664 213.047 23.6193 213.047 22.3277C213.047 21.0361 212 19.989 210.709 19.989H207.702Z" fill="#C2C2C2"/>
<path d="M247.049 17.4545V32H245.288V19.017H237.958V32H236.197V17.4545H247.049ZM253.585 32.2557C252.894 32.2557 252.266 32.1255 251.703 31.8651C251.14 31.5999 250.692 31.2188 250.361 30.7216C250.029 30.2197 249.864 29.6136 249.864 28.9034C249.864 28.2784 249.987 27.7718 250.233 27.3835C250.479 26.9905 250.808 26.6828 251.22 26.4602C251.632 26.2377 252.087 26.072 252.584 25.9631C253.086 25.8494 253.59 25.7595 254.097 25.6932C254.759 25.608 255.297 25.544 255.709 25.5014C256.125 25.4541 256.428 25.3759 256.618 25.267C256.812 25.1581 256.909 24.9687 256.909 24.6989V24.642C256.909 23.9413 256.717 23.3968 256.334 23.0085C255.955 22.6203 255.38 22.4261 254.608 22.4261C253.808 22.4261 253.18 22.6013 252.726 22.9517C252.271 23.3021 251.952 23.6761 251.767 24.0739L250.176 23.5057C250.46 22.8428 250.839 22.3267 251.312 21.9574C251.791 21.5833 252.311 21.3229 252.875 21.1761C253.443 21.0246 254.002 20.9489 254.551 20.9489C254.901 20.9489 255.304 20.9915 255.758 21.0767C256.218 21.1572 256.66 21.3253 257.087 21.581C257.517 21.8366 257.875 22.2225 258.159 22.7386C258.443 23.2547 258.585 23.946 258.585 24.8125V32H256.909V30.5227H256.824C256.71 30.7595 256.521 31.0128 256.256 31.2827C255.99 31.5526 255.638 31.7822 255.197 31.9716C254.757 32.161 254.22 32.2557 253.585 32.2557ZM253.841 30.75C254.504 30.75 255.062 30.6198 255.517 30.3594C255.976 30.099 256.322 29.7628 256.554 29.3509C256.791 28.9389 256.909 28.5057 256.909 28.0511V26.517C256.838 26.6023 256.682 26.6804 256.44 26.7514C256.204 26.8177 255.929 26.8769 255.616 26.929C255.309 26.9763 255.008 27.0189 254.714 27.0568C254.426 27.09 254.191 27.1184 254.011 27.142C253.576 27.1989 253.168 27.2912 252.79 27.419C252.416 27.5421 252.113 27.7292 251.881 27.9801C251.653 28.2263 251.54 28.5625 251.54 28.9886C251.54 29.571 251.755 30.0114 252.186 30.3097C252.622 30.6032 253.173 30.75 253.841 30.75ZM261.644 36.0909V21.0909H263.264V22.8239H263.463C263.586 22.6345 263.756 22.393 263.974 22.0994C264.197 21.8011 264.514 21.536 264.926 21.304C265.342 21.0672 265.906 20.9489 266.616 20.9489C267.535 20.9489 268.344 21.1785 269.045 21.6378C269.746 22.0971 270.293 22.7481 270.686 23.5909C271.079 24.4337 271.275 25.428 271.275 26.5739C271.275 27.7292 271.079 28.7306 270.686 29.5781C270.293 30.4209 269.748 31.0743 269.052 31.5384C268.356 31.9976 267.554 32.2273 266.644 32.2273C265.944 32.2273 265.383 32.1113 264.961 31.8793C264.54 31.6425 264.215 31.375 263.988 31.0767C263.761 30.7737 263.586 30.5227 263.463 30.3239H263.321V36.0909H261.644ZM263.292 26.5455C263.292 27.3693 263.413 28.0961 263.654 28.7259C263.896 29.3509 264.249 29.8409 264.713 30.196C265.177 30.5464 265.745 30.7216 266.417 30.7216C267.118 30.7216 267.703 30.5369 268.171 30.1676C268.645 29.7936 269 29.2917 269.237 28.6619C269.478 28.0275 269.599 27.322 269.599 26.5455C269.599 25.7784 269.481 25.0871 269.244 24.4716C269.012 23.8513 268.659 23.3613 268.186 23.0014C267.717 22.6368 267.127 22.4545 266.417 22.4545C265.735 22.4545 265.162 22.6274 264.698 22.973C264.234 23.3139 263.884 23.7921 263.647 24.4077C263.411 25.0185 263.292 25.7311 263.292 26.5455ZM273.832 32V21.0909H275.508V25.8352H276.616L280.536 21.0909H282.696L278.292 26.3466L282.752 32H280.593L277.014 27.3977H275.508V32H273.832ZM288.557 32.2273C287.572 32.2273 286.708 31.9929 285.964 31.5241C285.226 31.0554 284.648 30.3996 284.231 29.5568C283.82 28.714 283.614 27.7292 283.614 26.6023C283.614 25.4659 283.82 24.474 284.231 23.6264C284.648 22.7789 285.226 22.1207 285.964 21.652C286.708 21.1832 287.572 20.9489 288.557 20.9489C289.542 20.9489 290.403 21.1832 291.142 21.652C291.885 22.1207 292.463 22.7789 292.875 23.6264C293.292 24.474 293.5 25.4659 293.5 26.6023C293.5 27.7292 293.292 28.714 292.875 29.5568C292.463 30.3996 291.885 31.0554 291.142 31.5241C290.403 31.9929 289.542 32.2273 288.557 32.2273ZM288.557 30.7216C289.305 30.7216 289.92 30.5298 290.403 30.1463C290.886 29.7628 291.244 29.2585 291.476 28.6335C291.708 28.0085 291.824 27.3314 291.824 26.6023C291.824 25.8731 291.708 25.1937 291.476 24.5639C291.244 23.9342 290.886 23.4252 290.403 23.0369C289.92 22.6487 289.305 22.4545 288.557 22.4545C287.809 22.4545 287.193 22.6487 286.71 23.0369C286.227 23.4252 285.87 23.9342 285.638 24.5639C285.406 25.1937 285.29 25.8731 285.29 26.6023C285.29 27.3314 285.406 28.0085 285.638 28.6335C285.87 29.2585 286.227 29.7628 286.71 30.1463C287.193 30.5298 287.809 30.7216 288.557 30.7216ZM296.059 32V21.0909H300.519C301.693 21.0909 302.626 21.3561 303.317 21.8864C304.008 22.4167 304.354 23.1174 304.354 23.9886C304.354 24.6515 304.157 25.1652 303.764 25.5298C303.371 25.8897 302.867 26.1335 302.252 26.2614C302.654 26.3182 303.045 26.4602 303.424 26.6875C303.807 26.9148 304.124 27.2273 304.375 27.625C304.626 28.018 304.752 28.5009 304.752 29.0739C304.752 29.6326 304.61 30.1321 304.326 30.5724C304.041 31.0128 303.634 31.3608 303.104 31.6165C302.574 31.8722 301.939 32 301.201 32H296.059ZM297.649 30.4659H301.201C301.778 30.4659 302.23 30.3286 302.557 30.054C302.884 29.7794 303.047 29.4053 303.047 28.9318C303.047 28.3684 302.884 27.9257 302.557 27.6037C302.23 27.277 301.778 27.1136 301.201 27.1136H297.649V30.4659ZM297.649 25.6648H300.519C300.969 25.6648 301.354 25.6032 301.676 25.4801C301.998 25.3523 302.245 25.1723 302.415 24.9403C302.59 24.7036 302.678 24.4242 302.678 24.1023C302.678 23.643 302.486 23.2831 302.103 23.0227C301.719 22.7576 301.191 22.625 300.519 22.625H297.649V25.6648ZM307.289 32V21.0909H308.965V25.8352H310.073L313.994 21.0909H316.153L311.749 26.3466L316.209 32H314.05L310.471 27.3977H308.965V32H307.289ZM321.241 32.2557C320.55 32.2557 319.923 32.1255 319.359 31.8651C318.796 31.5999 318.348 31.2188 318.017 30.7216C317.686 30.2197 317.52 29.6136 317.52 28.9034C317.52 28.2784 317.643 27.7718 317.889 27.3835C318.135 26.9905 318.464 26.6828 318.876 26.4602C319.288 26.2377 319.743 26.072 320.24 25.9631C320.742 25.8494 321.246 25.7595 321.753 25.6932C322.416 25.608 322.953 25.544 323.365 25.5014C323.782 25.4541 324.085 25.3759 324.274 25.267C324.468 25.1581 324.565 24.9687 324.565 24.6989V24.642C324.565 23.9413 324.373 23.3968 323.99 23.0085C323.611 22.6203 323.036 22.4261 322.264 22.4261C321.464 22.4261 320.837 22.6013 320.382 22.9517C319.927 23.3021 319.608 23.6761 319.423 24.0739L317.832 23.5057C318.116 22.8428 318.495 22.3267 318.969 21.9574C319.447 21.5833 319.968 21.3229 320.531 21.1761C321.099 21.0246 321.658 20.9489 322.207 20.9489C322.558 20.9489 322.96 20.9915 323.415 21.0767C323.874 21.1572 324.317 21.3253 324.743 21.581C325.174 21.8366 325.531 22.2225 325.815 22.7386C326.099 23.2547 326.241 23.946 326.241 24.8125V32H324.565V30.5227H324.48C324.366 30.7595 324.177 31.0128 323.912 31.2827C323.647 31.5526 323.294 31.7822 322.854 31.9716C322.413 32.161 321.876 32.2557 321.241 32.2557ZM321.497 30.75C322.16 30.75 322.719 30.6198 323.173 30.3594C323.632 30.099 323.978 29.7628 324.21 29.3509C324.447 28.9389 324.565 28.5057 324.565 28.0511V26.517C324.494 26.6023 324.338 26.6804 324.097 26.7514C323.86 26.8177 323.585 26.8769 323.273 26.929C322.965 26.9763 322.664 27.0189 322.371 27.0568C322.082 27.09 321.847 27.1184 321.668 27.142C321.232 27.1989 320.825 27.2912 320.446 27.419C320.072 27.5421 319.769 27.7292 319.537 27.9801C319.31 28.2263 319.196 28.5625 319.196 28.9886C319.196 29.571 319.411 30.0114 319.842 30.3097C320.278 30.6032 320.829 30.75 321.497 30.75Z" fill="#C2C2C2"/>
<rect x="363.407" width="177.401" height="50" rx="15" fill="white" fill-opacity="0.2"/>
<path fill-rule="evenodd" clip-rule="evenodd" d="M383.407 15.3117C383.407 13.4665 384.903 11.9707 386.748 11.9707H403.453C405.299 11.9707 406.795 13.4665 406.795 15.3117V31.3488C406.795 33.194 405.299 34.6898 403.453 34.6898L403.453 36.3603C403.453 37.2829 402.706 38.0308 401.783 38.0308C400.86 38.0308 400.112 37.2829 400.112 36.3603V34.6898H390.758V36.3603C390.758 37.2829 390.01 38.0308 389.087 38.0308C388.164 38.0308 387.416 37.2829 387.416 36.3603V34.6898H386.748C384.903 34.6898 383.407 33.194 383.407 31.3488V15.3117ZM385.412 24.3326C385.412 23.41 386.16 22.662 387.082 22.662C388.005 22.662 388.753 23.41 388.753 24.3326V31.0147C388.753 31.9373 388.005 32.6852 387.082 32.6852C386.16 32.6852 385.412 31.9373 385.412 31.0147V24.3326ZM392.428 22.662C391.505 22.662 390.758 23.41 390.758 24.3326V31.0147C390.758 31.9373 391.505 32.6852 392.428 32.6852C393.351 32.6852 394.099 31.9373 394.099 31.0147V24.3326C394.099 23.41 393.351 22.662 392.428 22.662ZM396.103 24.3326C396.103 23.41 396.851 22.662 397.774 22.662C398.696 22.662 399.444 23.41 399.444 24.3326V31.0147C399.444 31.9373 398.696 32.6852 397.774 32.6852C396.851 32.6852 396.103 31.9373 396.103 31.0147V24.3326ZM403.119 22.662C402.197 22.662 401.449 23.41 401.449 24.3326V31.0147C401.449 31.9373 402.197 32.6852 403.119 32.6852C404.042 32.6852 404.79 31.9373 404.79 31.0147V24.3326C404.79 23.41 404.042 22.662 403.119 22.662ZM408.799 13.3071C408.799 12.569 409.397 11.9707 410.136 11.9707C410.874 11.9707 411.472 12.569 411.472 13.3071L411.472 19.321C412.21 19.321 412.808 19.9193 412.808 20.6574V22.662C412.808 23.4001 412.21 23.9985 411.472 23.9985L411.472 33.3534C411.472 34.0915 410.874 34.6898 410.136 34.6898C409.397 34.6898 408.799 34.0915 408.799 33.3534V13.3071Z" fill="#C2C2C2"/>
<path d="M424.57 17.4545H426.672L431.615 29.5284H431.786L436.729 17.4545H438.831V32H437.184V20.9489H437.042L432.496 32H430.905L426.36 20.9489H426.218V32H424.57V17.4545ZM443.812 29.5284L449.067 21.0909H450.999V32H449.323V23.5625L444.096 32H442.136V21.0909H443.812V29.5284ZM461.37 25.7784V27.3409H455.348V25.7784H461.37ZM455.745 21.0909V32H454.069V21.0909H455.745ZM462.649 21.0909V32H460.973V21.0909H462.649ZM467.386 29.5284L472.642 21.0909H474.574V32H472.897V23.5625L467.67 32H465.71V21.0909H467.386V29.5284ZM483.893 24.983V26.5455H477.53V24.983H483.893ZM494.939 17L495.792 18.0227C495.46 18.3447 495.077 18.5696 494.641 18.6974C494.205 18.8253 493.713 18.9034 493.164 18.9318C492.614 18.9602 492.004 18.9886 491.331 19.017C490.574 19.0455 489.946 19.2301 489.449 19.571C488.952 19.9119 488.569 20.4044 488.299 21.0483C488.029 21.6922 487.856 22.483 487.78 23.4205H487.922C488.292 22.7386 488.803 22.2367 489.456 21.9148C490.11 21.5928 490.81 21.4318 491.559 21.4318C492.411 21.4318 493.178 21.6307 493.86 22.0284C494.542 22.4261 495.081 23.0156 495.479 23.7969C495.877 24.5781 496.076 25.5417 496.076 26.6875C496.076 27.8286 495.872 28.8134 495.465 29.642C495.062 30.4706 494.497 31.1098 493.767 31.5597C493.043 32.0047 492.193 32.2273 491.218 32.2273C490.242 32.2273 489.388 31.9976 488.654 31.5384C487.92 31.0743 487.349 30.3878 486.942 29.4787C486.535 28.5649 486.331 27.4356 486.331 26.0909V24.9261C486.331 22.4972 486.743 20.6553 487.567 19.4006C488.396 18.1458 489.641 17.4972 491.303 17.4545C491.89 17.4356 492.413 17.4309 492.873 17.4403C493.332 17.4498 493.732 17.4285 494.073 17.3764C494.414 17.3243 494.703 17.1989 494.939 17ZM491.218 30.7216C491.876 30.7216 492.442 30.5559 492.915 30.2244C493.393 29.893 493.76 29.4266 494.016 28.8253C494.272 28.2192 494.4 27.5066 494.4 26.6875C494.4 25.892 494.269 25.215 494.009 24.6562C493.753 24.0975 493.386 23.6714 492.908 23.3778C492.43 23.0843 491.857 22.9375 491.189 22.9375C490.702 22.9375 490.264 23.0204 489.875 23.1861C489.487 23.3518 489.156 23.5956 488.881 23.9176C488.606 24.2396 488.393 24.6326 488.242 25.0966C488.095 25.5606 488.017 26.0909 488.007 26.6875C488.007 27.9091 488.294 28.8868 488.867 29.6207C489.44 30.3546 490.223 30.7216 491.218 30.7216ZM501.85 32.2557C501.158 32.2557 500.531 32.1255 499.968 31.8651C499.404 31.5999 498.957 31.2188 498.625 30.7216C498.294 30.2197 498.128 29.6136 498.128 28.9034C498.128 28.2784 498.251 27.7718 498.498 27.3835C498.744 26.9905 499.073 26.6828 499.485 26.4602C499.897 26.2377 500.351 26.072 500.848 25.9631C501.35 25.8494 501.855 25.7595 502.361 25.6932C503.024 25.608 503.561 25.544 503.973 25.5014C504.39 25.4541 504.693 25.3759 504.882 25.267C505.077 25.1581 505.174 24.9687 505.174 24.6989V24.642C505.174 23.9413 504.982 23.3968 504.598 23.0085C504.22 22.6203 503.644 22.4261 502.873 22.4261C502.072 22.4261 501.445 22.6013 500.99 22.9517C500.536 23.3021 500.216 23.6761 500.032 24.0739L498.441 23.5057C498.725 22.8428 499.104 22.3267 499.577 21.9574C500.055 21.5833 500.576 21.3229 501.14 21.1761C501.708 21.0246 502.266 20.9489 502.816 20.9489C503.166 20.9489 503.569 20.9915 504.023 21.0767C504.482 21.1572 504.925 21.3253 505.351 21.581C505.782 21.8366 506.14 22.2225 506.424 22.7386C506.708 23.2547 506.85 23.946 506.85 24.8125V32H505.174V30.5227H505.088C504.975 30.7595 504.785 31.0128 504.52 31.2827C504.255 31.5526 503.902 31.7822 503.462 31.9716C503.022 32.161 502.484 32.2557 501.85 32.2557ZM502.105 30.75C502.768 30.75 503.327 30.6198 503.782 30.3594C504.241 30.099 504.587 29.7628 504.819 29.3509C505.055 28.9389 505.174 28.5057 505.174 28.0511V26.517C505.103 26.6023 504.946 26.6804 504.705 26.7514C504.468 26.8177 504.194 26.8769 503.881 26.929C503.573 26.9763 503.273 27.0189 502.979 27.0568C502.69 27.09 502.456 27.1184 502.276 27.142C501.84 27.1989 501.433 27.2912 501.054 27.419C500.68 27.5421 500.377 27.7292 500.145 27.9801C499.918 28.2263 499.804 28.5625 499.804 28.9886C499.804 29.571 500.02 30.0114 500.451 30.3097C500.886 30.6032 501.438 30.75 502.105 30.75ZM509.909 36.0909V21.0909H511.528V22.8239H511.727C511.85 22.6345 512.021 22.393 512.239 22.0994C512.461 21.8011 512.778 21.536 513.19 21.304C513.607 21.0672 514.17 20.9489 514.881 20.9489C515.799 20.9489 516.609 21.1785 517.31 21.6378C518.01 22.0971 518.557 22.7481 518.95 23.5909C519.343 24.4337 519.54 25.428 519.54 26.5739C519.54 27.7292 519.343 28.7306 518.95 29.5781C518.557 30.4209 518.013 31.0743 517.317 31.5384C516.621 31.9976 515.818 32.2273 514.909 32.2273C514.208 32.2273 513.647 32.1113 513.226 31.8793C512.804 31.6425 512.48 31.375 512.253 31.0767C512.026 30.7737 511.85 30.5227 511.727 30.3239H511.585V36.0909H509.909ZM511.557 26.5455C511.557 27.3693 511.678 28.0961 511.919 28.7259C512.161 29.3509 512.513 29.8409 512.977 30.196C513.441 30.5464 514.009 30.7216 514.682 30.7216C515.383 30.7216 515.967 30.5369 516.436 30.1676C516.91 29.7936 517.265 29.2917 517.501 28.6619C517.743 28.0275 517.864 27.322 517.864 26.5455C517.864 25.7784 517.745 25.0871 517.509 24.4716C517.277 23.8513 516.924 23.3613 516.45 23.0014C515.982 22.6368 515.392 22.4545 514.682 22.4545C514 22.4545 513.427 22.6274 512.963 22.973C512.499 23.3139 512.149 23.7921 511.912 24.4077C511.675 25.0185 511.557 25.7311 511.557 26.5455Z" fill="#C2C2C2"/>
<rect x="555.809" width="125.48" height="50" rx="15" fill="white" fill-opacity="0.2"/>
<circle cx="588.206" cy="33.8739" r="2.1512" fill="#C2C2C2"/>
<path fill-rule="evenodd" clip-rule="evenodd" d="M600.99 20.2901C601.434 19.7445 601.382 18.9447 600.839 18.498C597.403 15.6716 593.003 13.9746 588.206 13.9746C583.743 13.9746 579.623 15.444 576.304 17.9254C575.739 18.3476 575.651 19.1469 576.072 19.7126C576.537 20.3371 577.432 20.4304 578.06 19.971C580.905 17.8913 584.412 16.6636 588.206 16.6636C592.288 16.6636 596.039 18.085 598.989 20.4598C599.597 20.9491 600.498 20.8957 600.99 20.2901Z" fill="#C2C2C2"/>
<path fill-rule="evenodd" clip-rule="evenodd" d="M593.59 29.3973C593.985 28.9108 593.979 28.201 593.506 27.789C592.089 26.5532 590.235 25.8047 588.207 25.8047C586.319 25.8047 584.582 26.4534 583.208 27.5402C582.712 27.9323 582.675 28.648 583.054 29.1538C583.556 29.8232 584.56 29.8323 585.259 29.3729C586.106 28.817 587.119 28.4937 588.207 28.4937C589.388 28.4937 590.48 28.8744 591.368 29.5198C592.048 30.0148 593.059 30.0503 593.59 29.3973Z" fill="#C2C2C2"/>
<path fill-rule="evenodd" clip-rule="evenodd" d="M597.275 24.8637C597.706 24.3328 597.668 23.5556 597.142 23.1183C594.719 21.1028 591.604 19.8906 588.206 19.8906C585.029 19.8906 582.099 20.9501 579.752 22.7351C579.205 23.1506 579.135 23.9292 579.547 24.4785C580.023 25.1142 580.945 25.1862 581.589 24.7201C583.448 23.3735 585.734 22.5796 588.206 22.5796C590.856 22.5796 593.293 23.4924 595.219 25.0207C595.844 25.5162 596.772 25.4823 597.275 24.8637Z" fill="#C2C2C2"/>
<path d="M615.691 32L611.714 17.4545H613.504L616.544 29.3011H616.686L619.782 17.4545H621.771L624.868 29.3011H625.01L628.049 17.4545H629.839L625.862 32H624.044L620.834 20.4091H620.72L617.51 32H615.691ZM631.807 32V21.0909H633.483V32H631.807ZM632.659 19.2727C632.332 19.2727 632.05 19.1615 631.814 18.9389C631.582 18.7164 631.466 18.4489 631.466 18.1364C631.466 17.8239 631.582 17.5563 631.814 17.3338C632.05 17.1113 632.332 17 632.659 17C632.986 17 633.265 17.1113 633.497 17.3338C633.734 17.5563 633.852 17.8239 633.852 18.1364C633.852 18.4489 633.734 18.7164 633.497 18.9389C633.265 19.1615 632.986 19.2727 632.659 19.2727ZM642.803 24.983V26.5455H636.439V24.983H642.803ZM645.979 32V17.4545H654.701V19.017H647.741V23.9318H654.047V25.4943H647.741V32H645.979ZM657.49 32V21.0909H659.166V32H657.49ZM658.342 19.2727C658.016 19.2727 657.734 19.1615 657.497 18.9389C657.265 18.7164 657.149 18.4489 657.149 18.1364C657.149 17.8239 657.265 17.5563 657.497 17.3338C657.734 17.1113 658.016 17 658.342 17C658.669 17 658.948 17.1113 659.18 17.3338C659.417 17.5563 659.536 17.8239 659.536 18.1364C659.536 18.4489 659.417 18.7164 659.18 18.9389C658.948 19.1615 658.669 19.2727 658.342 19.2727Z" fill="#C2C2C2"/>
<rect x="696.288" width="131.401" height="50" rx="15" fill="white" fill-opacity="0.2"/>
<path d="M741.68 36.3604C741.68 37.2829 740.932 38.0311 740.01 38.0312C739.087 38.0312 738.339 37.2829 738.339 36.3604V34.6895H723.639V36.3604C723.639 37.2829 722.89 38.0312 721.968 38.0312C721.045 38.0312 720.297 37.2829 720.297 36.3604V34.6895H719.629C717.784 34.6893 716.288 33.1938 716.288 31.3486V15.3115C716.288 13.4665 717.784 11.9708 719.629 11.9707H742.349C744.194 11.9709 745.689 13.4666 745.689 15.3115V31.3486C745.689 33.1937 744.194 34.6892 742.349 34.6895H741.68V36.3604ZM721.634 13.9756C719.789 13.9756 718.293 15.4712 718.293 17.3164V29.3438C718.293 31.189 719.789 32.6855 721.634 32.6855H740.344C742.189 32.6855 743.685 31.1889 743.685 29.3438V17.3164C743.685 15.4712 742.189 13.9757 740.344 13.9756H721.634Z" fill="#C2C2C2"/>
<path d="M738.339 15.9785C740.184 15.9787 741.68 17.4752 741.68 19.3203V27.3389C741.68 29.1838 740.184 30.6795 738.339 30.6797H723.638C721.793 30.6796 720.298 29.1839 720.297 27.3389V19.3203C720.297 17.4752 721.793 15.9786 723.638 15.9785H738.339ZM725.309 19.9893C723.649 19.9894 722.302 21.3355 722.302 22.9961C722.302 24.6567 723.649 26.0028 725.309 26.0029C726.618 26.0028 727.729 25.1655 728.142 23.998H731.992C732.545 23.9978 732.994 23.5495 732.994 22.9961C732.994 22.4427 732.545 21.9944 731.992 21.9941H728.141C727.728 20.8269 726.618 19.9894 725.309 19.9893Z" fill="#C2C2C2"/>
<path d="M769.155 22H767.394C767.29 21.4934 767.108 21.0483 766.847 20.6648C766.591 20.2812 766.279 19.9593 765.91 19.6989C765.545 19.4337 765.14 19.2348 764.695 19.1023C764.25 18.9697 763.786 18.9034 763.303 18.9034C762.422 18.9034 761.625 19.1259 760.91 19.571C760.199 20.0161 759.634 20.6719 759.212 21.5384C758.796 22.4048 758.587 23.4678 758.587 24.7273C758.587 25.9867 758.796 27.0497 759.212 27.9162C759.634 28.7827 760.199 29.4384 760.91 29.8835C761.625 30.3286 762.422 30.5511 763.303 30.5511C763.786 30.5511 764.25 30.4848 764.695 30.3523C765.14 30.2197 765.545 30.0232 765.91 29.7628C766.279 29.4976 766.591 29.1733 766.847 28.7898C767.108 28.4015 767.29 27.9564 767.394 27.4545H769.155C769.023 28.1979 768.781 28.8632 768.431 29.4503C768.081 30.0374 767.645 30.5369 767.124 30.9489C766.603 31.3561 766.019 31.6662 765.37 31.8793C764.726 32.0923 764.037 32.1989 763.303 32.1989C762.063 32.1989 760.959 31.8958 759.993 31.2898C759.028 30.6837 758.268 29.822 757.714 28.7045C757.16 27.5871 756.883 26.2614 756.883 24.7273C756.883 23.1932 757.16 21.8674 757.714 20.75C758.268 19.6326 759.028 18.7708 759.993 18.1648C760.959 17.5587 762.063 17.2557 763.303 17.2557C764.037 17.2557 764.726 17.3622 765.37 17.5753C766.019 17.7884 766.603 18.1009 767.124 18.5128C767.645 18.92 768.081 19.4171 768.431 20.0043C768.781 20.5866 769.023 21.2519 769.155 22ZM776.348 32.2273C775.297 32.2273 774.39 31.9953 773.628 31.5312C772.87 31.0625 772.286 30.4091 771.874 29.571C771.467 28.7282 771.263 27.7481 771.263 26.6307C771.263 25.5133 771.467 24.5284 771.874 23.6761C772.286 22.8191 772.859 22.1515 773.593 21.6733C774.331 21.1903 775.193 20.9489 776.178 20.9489C776.746 20.9489 777.307 21.0436 777.861 21.233C778.415 21.4223 778.919 21.7301 779.374 22.1562C779.828 22.5777 780.191 23.1364 780.46 23.8324C780.73 24.5284 780.865 25.3854 780.865 26.4034V27.1136H772.456V25.6648H779.161C779.161 25.0492 779.038 24.5 778.791 24.017C778.55 23.5341 778.204 23.1529 777.754 22.8736C777.309 22.5942 776.784 22.4545 776.178 22.4545C775.51 22.4545 774.932 22.6203 774.445 22.9517C773.962 23.2784 773.59 23.7045 773.33 24.2301C773.069 24.7557 772.939 25.3191 772.939 25.9205V26.8864C772.939 27.7102 773.081 28.4086 773.365 28.9815C773.654 29.5497 774.054 29.983 774.566 30.2812C775.077 30.5748 775.671 30.7216 776.348 30.7216C776.789 30.7216 777.186 30.66 777.541 30.5369C777.901 30.4091 778.211 30.2197 778.472 29.9688C778.732 29.7131 778.933 29.3958 779.075 29.017L780.695 29.4716C780.524 30.0208 780.238 30.5038 779.835 30.9205C779.433 31.3324 778.936 31.6544 778.344 31.8864C777.752 32.1136 777.087 32.2273 776.348 32.2273ZM785.091 29.5284L790.347 21.0909H792.279V32H790.602V23.5625L785.375 32H783.415V21.0909H785.091V29.5284ZM789.239 17.4545H790.801C790.801 18.2216 790.536 18.849 790.006 19.3366C789.476 19.8243 788.756 20.0682 787.847 20.0682C786.952 20.0682 786.239 19.8243 785.709 19.3366C785.183 18.849 784.921 18.2216 784.921 17.4545H786.483C786.483 17.8239 786.585 18.1482 786.789 18.4276C786.997 18.7069 787.35 18.8466 787.847 18.8466C788.344 18.8466 788.699 18.7069 788.912 18.4276C789.13 18.1482 789.239 17.8239 789.239 17.4545ZM799.78 35.7216V17.4545H801.456V35.7216H799.78ZM799.78 32.2273C799.042 32.2273 798.369 32.0947 797.763 31.8295C797.157 31.5597 796.636 31.1785 796.201 30.6861C795.765 30.1889 795.429 29.5947 795.192 28.9034C794.956 28.2121 794.837 27.4451 794.837 26.6023C794.837 25.75 794.956 24.9782 795.192 24.2869C795.429 23.5909 795.765 22.9943 796.201 22.4972C796.636 22 797.157 21.6188 797.763 21.3537C798.369 21.0838 799.042 20.9489 799.78 20.9489H800.292V32.2273H799.78ZM799.78 30.7216H800.064V22.4545H799.78C799.222 22.4545 798.736 22.5682 798.324 22.7955C797.912 23.018 797.572 23.3234 797.302 23.7116C797.037 24.0952 796.838 24.5355 796.705 25.0327C796.577 25.5298 796.513 26.053 796.513 26.6023C796.513 27.3314 796.629 28.0085 796.861 28.6335C797.093 29.2585 797.451 29.7628 797.934 30.1463C798.417 30.5298 799.032 30.7216 799.78 30.7216ZM801.456 32.2273H800.945V20.9489H801.456C802.195 20.9489 802.867 21.0838 803.474 21.3537C804.08 21.6188 804.6 22 805.036 22.4972C805.472 22.9943 805.808 23.5909 806.045 24.2869C806.281 24.9782 806.4 25.75 806.4 26.6023C806.4 27.4451 806.281 28.2121 806.045 28.9034C805.808 29.5947 805.472 30.1889 805.036 30.6861C804.6 31.1785 804.08 31.5597 803.474 31.8295C802.867 32.0947 802.195 32.2273 801.456 32.2273ZM801.456 30.7216C802.02 30.7216 802.505 30.6127 802.912 30.3949C803.324 30.1723 803.663 29.8693 803.928 29.4858C804.198 29.0975 804.397 28.6572 804.525 28.1648C804.657 27.6676 804.724 27.1468 804.724 26.6023C804.724 25.8731 804.608 25.1937 804.376 24.5639C804.144 23.9342 803.786 23.4252 803.303 23.0369C802.82 22.6487 802.205 22.4545 801.456 22.4545H801.172V30.7216H801.456Z" fill="#C2C2C2"/>
<rect y="65" width="72" height="50" rx="15" fill="white" fill-opacity="0.2"/>
<path d="M25.7955 94.4432V85.0682H27.3864V94.4432H25.7955ZM21.9034 90.5511V88.9602H31.2784V90.5511H21.9034ZM39.9734 94.017V92.5682L46.3654 82.4545H47.4165V84.6989H46.7063L41.8768 92.3409V92.4545H50.4847V94.017H39.9734ZM46.82 97V93.5767V92.902V82.4545H48.4961V97H46.82Z" fill="#C2C2C2"/>
</svg>
